<svg width="43" height="43" viewBox="0 0 43 43" fill="none" xmlns="http://www.w3.org/2000/svg">
<rect width="43" height="43" rx="4" fill="#D9D9D9"/>
<path d="M30.1099 30.0602V14.2202H32.9699V30.0602H30.1099ZM31.4739 23.7022V21.4362H40.3839V23.7022H31.4739ZM31.4739 16.4862V14.2202H40.9119V16.4862H31.4739Z" fill="black"/>
<path d="M25.8733 30.06L17.5793 21.348C17.11 20.8347 16.736 20.3727 16.4573 19.962C16.1787 19.5513 15.9807 19.1627 15.8633 18.796C15.746 18.4293 15.6873 18.0407 15.6873 17.63C15.6873 16.9553 15.8707 16.3467 16.2373 15.804C16.604 15.2467 17.1173 14.8067 17.7773 14.484C18.452 14.1613 19.222 14 20.0873 14C20.9233 14 21.6787 14.154 22.3533 14.462C23.028 14.77 23.556 15.2027 23.9373 15.76C24.3333 16.3173 24.5313 16.9847 24.5313 17.762C24.5313 18.6567 24.194 19.478 23.5193 20.226C22.8447 20.9593 21.8473 21.546 20.5273 21.986L19.1853 20.38C20.168 20.072 20.8867 19.6907 21.3413 19.236C21.8107 18.7667 22.0453 18.2533 22.0453 17.696C22.0453 17.1973 21.8693 16.7867 21.5173 16.464C21.18 16.1413 20.718 15.98 20.1313 15.98C19.5593 15.98 19.112 16.1413 18.7893 16.464C18.4813 16.7867 18.3273 17.1753 18.3273 17.63C18.3273 17.8793 18.3787 18.1433 18.4813 18.422C18.584 18.686 18.7967 19.0233 19.1193 19.434C19.4567 19.8447 19.948 20.3873 20.5933 21.062L29.4593 30.06H25.8733ZM19.5813 30.28C18.364 30.28 17.2933 30.082 16.3693 29.686C15.46 29.29 14.7487 28.7473 14.2353 28.058C13.722 27.354 13.4653 26.54 13.4653 25.616C13.4653 24.384 13.8833 23.35 14.7193 22.514C15.5553 21.6633 16.7653 21.0107 18.3493 20.556L19.6913 22.206C18.8407 22.4553 18.166 22.7413 17.6673 23.064C17.1687 23.372 16.8093 23.7167 16.5893 24.098C16.3693 24.4793 16.2593 24.8973 16.2593 25.352C16.2593 26.1733 16.5673 26.8187 17.1833 27.288C17.814 27.7573 18.694 27.992 19.8233 27.992C20.586 27.992 21.3047 27.8673 21.9793 27.618C22.654 27.3687 23.2553 26.9873 23.7833 26.474C24.3113 25.946 24.722 25.2787 25.0153 24.472C25.3233 23.6507 25.4773 22.668 25.4773 21.524H28.1393C28.1393 22.5653 28 23.5407 27.7213 24.45C27.4427 25.3447 27.0467 26.1513 26.5333 26.87C26.0347 27.5887 25.426 28.2047 24.7073 28.718C24.0033 29.2167 23.2187 29.6053 22.3533 29.884C21.488 30.148 20.564 30.28 19.5813 30.28Z" fill="black"/>
<path d="M3 30.0602V14.2202H5.86V30.0602H3ZM4.364 23.7022V21.4362H13.274V23.7022H4.364ZM4.364 16.4862V14.2202H13.802V16.4862H4.364Z" fill="black"/>
</svg>
