<svg xmlns="http://www.w3.org/2000/svg" width="504" height="499" viewBox="0 0 504 499">
<g>
<path d="M 453.00 39.00 L 453.00 377.00 L 53.00 377.00 L 53.00 39.00 ZM 206.52 307.62 C207.35,310.25 211.52,308.77 226.10,300.66 L 239.50 293.21 L 252.81 293.15 C260.13,293.12 266.96,292.83 267.99,292.50 C270.24,291.79 278.95,295.99 291.30,303.73 L 300.11 309.25 L 302.60 306.91 C306.52,303.23 305.39,301.09 296.29,295.00 C291.77,291.98 288.20,289.08 288.35,288.56 C288.50,288.05 290.85,286.91 293.56,286.03 L 298.50 284.44 L 305.50 288.21 C313.78,292.66 319.77,293.18 326.04,289.98 C329.77,288.07 330.15,288.05 332.53,289.61 C335.75,291.72 336.09,291.32 335.02,286.60 C334.55,284.49 334.37,282.21 334.62,281.54 C334.88,280.87 334.40,279.74 333.55,279.04 C332.70,278.33 332.00,277.12 332.00,276.34 C332.00,275.56 331.06,273.07 329.90,270.80 L 327.80 266.69 L 337.15 257.59 C344.58,250.37 347.72,246.37 352.43,238.13 C358.42,227.67 363.60,215.24 366.76,203.74 C368.11,198.85 368.47,193.50 368.44,179.00 C368.40,161.96 368.18,159.71 365.65,150.54 C355.83,115.01 330.58,86.67 296.49,72.91 C270.04,62.23 239.63,61.92 212.20,72.05 C186.79,81.44 161.90,104.18 149.74,129.13 C140.39,148.33 137.44,162.58 138.28,184.45 C139.10,205.49 143.81,220.83 155.12,239.26 C158.42,244.64 161.76,250.57 162.55,252.45 C163.90,255.69 169.56,261.00 171.65,261.00 C172.18,261.00 174.12,262.57 175.98,264.48 C179.08,267.68 179.22,268.10 177.80,269.73 C174.38,273.63 172.77,278.27 173.28,282.79 C173.75,286.93 175.46,289.45 177.11,288.43 C177.50,288.19 180.67,289.35 184.16,291.00 C188.61,293.11 191.99,293.99 195.50,293.98 C200.54,293.96 207.91,291.30 211.21,288.31 C212.72,286.94 213.57,286.90 217.48,287.99 C219.97,288.69 222.00,289.57 222.00,289.95 C222.00,290.32 218.51,293.05 214.25,296.01 C208.12,300.26 205.96,301.63 205.62,303.36 C205.43,304.27 205.76,305.29 206.28,306.89 C206.36,307.12 206.43,307.37 206.52,307.62 ZM 301.80 305.80 C301.34,306.26 301.03,306.59 300.64,306.73 C299.65,307.08 298.20,306.10 292.70,302.42 L 292.21 302.09 C284.36,296.84 260.98,284.55 252.00,280.96 C231.94,272.94 208.18,266.25 186.64,262.54 C174.50,260.45 172.40,259.81 169.80,257.33 C166.64,254.32 164.55,251.12 165.28,250.39 C165.52,250.14 173.25,251.52 182.45,253.44 C196.85,256.46 199.63,257.35 202.52,259.88 C206.80,263.64 209.16,264.35 214.60,263.54 C217.94,263.04 219.00,262.44 219.00,261.07 C219.00,260.07 219.92,257.17 221.05,254.63 C224.25,247.39 224.62,241.18 222.18,235.67 C220.11,231.00 214.04,224.49 210.75,223.43 C209.79,223.12 208.73,221.77 208.39,220.43 C207.61,217.31 206.26,217.34 204.82,220.50 C204.19,221.88 202.85,223.00 201.84,223.00 C200.83,223.00 200.00,223.62 200.00,224.37 C200.00,225.13 199.05,227.89 197.90,230.50 C196.22,234.30 195.87,236.74 196.17,242.63 C196.37,246.68 196.14,250.00 195.65,250.00 C194.10,250.00 182.36,237.42 178.24,231.35 C166.15,213.52 161.22,196.00 162.29,174.74 C163.00,160.60 164.90,153.14 171.05,140.36 C183.67,114.13 206.76,96.19 235.41,90.36 C246.26,88.16 267.53,88.94 277.81,91.92 C304.05,99.53 326.41,119.35 337.15,144.50 C342.14,156.18 343.44,163.34 343.39,179.00 C343.34,196.53 341.50,204.53 334.05,219.50 C329.32,229.02 320.89,241.00 318.92,241.00 C318.41,241.00 318.00,238.55 318.00,235.57 C318.00,229.51 316.78,225.50 314.03,222.50 C313.02,221.40 312.02,219.60 311.81,218.50 C311.50,216.91 310.74,216.55 308.13,216.77 C304.94,217.02 304.86,216.93 305.51,213.98 C306.07,211.42 305.59,210.21 302.59,206.54 C300.61,204.13 299.00,201.72 299.00,201.18 C299.00,200.64 300.81,196.26 303.02,191.45 C305.23,186.64 306.80,181.94 306.50,181.01 C305.85,178.94 301.57,176.84 299.59,177.60 C298.80,177.91 296.89,181.05 295.35,184.58 C293.81,188.11 292.28,191.00 291.94,191.00 C291.61,191.00 289.57,188.43 287.42,185.30 C285.26,182.16 279.67,175.83 275.00,171.22 L 266.50 162.85 L 270.00 160.21 C276.46,155.33 281.71,149.28 284.59,143.41 C288.28,135.86 288.56,125.76 285.25,119.41 C280.97,111.19 271.44,105.30 258.92,103.14 L 258.88 103.13 C252.30,101.99 249.70,101.54 248.67,102.61 C248.00,103.31 248.00,104.65 248.00,106.86 L 248.00 111.77 L 253.74 112.49 C273.28,114.93 279.05,131.21 264.67,143.35 C258.18,148.83 247.27,155.38 240.28,157.99 C233.47,160.54 232.66,160.51 233.31,157.75 C233.60,156.51 234.62,148.65 235.57,140.28 C237.57,122.66 237.38,122.00 230.36,122.00 C226.72,122.00 225.80,122.39 225.07,124.25 C223.59,128.00 212.56,208.41 213.27,210.27 C213.79,211.62 215.15,212.00 219.41,212.00 C222.71,212.00 225.19,211.50 225.66,210.75 C226.09,210.06 227.35,201.40 228.47,191.50 L 230.51 173.51 L 242.76 172.13 C253.14,170.96 255.25,170.96 256.66,172.13 C257.57,172.88 264.10,179.99 271.16,187.91 C282.34,200.46 284.00,202.77 284.00,205.77 C284.00,208.04 283.10,210.28 281.34,212.36 C278.33,215.92 274.00,225.11 274.00,227.93 C274.00,229.56 279.73,234.01 281.81,234.00 C282.19,233.99 284.67,229.72 287.33,224.50 C289.99,219.27 292.69,215.01 293.33,215.02 C293.97,215.03 295.61,215.89 296.96,216.93 L 299.42 218.82 L 294.32 223.66 C282.73,234.67 280.82,249.20 289.89,257.40 C291.05,258.45 292.00,260.53 292.00,262.02 C292.00,264.44 291.33,264.97 285.75,266.98 C282.31,268.22 275.97,271.05 271.66,273.27 C265.24,276.59 263.35,277.16 261.24,276.41 C256.86,274.86 257.46,273.12 263.16,270.73 L 268.50 268.50 L 254.00 268.00 C246.02,267.73 239.10,267.68 238.62,267.89 C238.13,268.11 241.32,269.73 245.70,271.50 C267.73,280.38 303.00,299.96 303.00,303.29 C303.00,304.01 302.46,305.14 301.80,305.80 ZM 238.65 256.17 C240.08,257.75 241.96,258.00 252.43,258.00 C253.57,258.00 254.63,258.01 255.62,258.01 C261.42,258.06 264.72,258.08 266.59,256.46 C269.06,254.32 269.05,249.31 269.01,237.72 C269.00,236.23 269.00,234.62 269.00,232.90 L 269.00 210.90 L 266.25 208.34 C264.11,206.34 263.50,204.86 263.50,201.64 L 263.50 197.50 L 253.81 197.21 L 244.11 196.93 L 244.69 200.46 C245.20,203.64 244.85,204.37 241.13,207.77 L 237.00 211.54 L 237.00 232.94 C237.00,251.45 237.22,254.59 238.65,256.17 ZM 325.07 286.25 C318.96,289.35 316.04,289.59 311.04,287.42 C302.37,283.66 297.39,277.12 296.33,268.10 L 295.76 263.33 L 304.63 257.73 C309.51,254.66 314.66,251.70 316.07,251.16 C318.13,250.38 342.18,245.00 343.62,245.00 C344.61,245.00 343.74,247.05 341.00,251.18 L 338.01 255.70 L 329.28 256.38 C324.48,256.74 320.11,257.49 319.58,258.02 C319.04,258.56 317.45,259.03 316.05,259.06 C313.66,259.11 313.62,259.19 315.42,260.31 C320.49,263.45 324.95,268.50 327.28,273.74 C331.31,282.81 331.26,283.12 325.07,286.25 ZM 228.45 315.35 L 230.90 318.00 L 277.85 318.00 L 279.93 315.37 C282.77,311.75 282.56,307.84 279.36,304.64 L 276.73 302.00 L 254.91 302.00 C231.73,302.00 229.03,302.45 227.11,306.66 C225.43,310.34 225.75,312.44 228.45,315.35 ZM 305.39 251.78 C302.15,254.64 298.52,256.98 297.33,256.99 C291.36,257.02 286.20,247.85 287.45,239.46 C288.60,231.81 296.34,223.23 303.79,221.34 C308.19,220.23 314.00,228.56 314.00,235.99 C314.00,242.16 311.86,246.08 305.39,251.78 ZM 205.01 288.00 C198.65,291.24 189.78,290.48 181.00,285.93 C178.20,284.49 177.44,283.45 177.20,280.78 C176.84,276.68 180.14,271.41 184.76,268.71 C188.94,266.27 198.57,265.37 203.44,266.98 C208.34,268.60 214.00,273.63 214.00,276.37 C214.00,279.75 209.33,285.79 205.01,288.00 ZM 215.35 257.75 C212.29,261.81 210.03,261.84 205.53,257.89 C198.83,252.01 197.35,240.10 202.10,230.30 C204.49,225.35 206.18,224.97 211.08,228.27 C220.71,234.77 222.64,248.09 215.35,257.75 ZM 154.28 206.94 C149.45,208.28 149.32,208.27 148.67,206.57 C148.37,205.79 148.81,204.58 149.65,203.88 C150.99,202.76 150.93,202.52 149.09,201.84 C145.82,200.63 146.63,198.45 150.75,197.35 L 154.50 196.34 L 151.50 195.59 C146.34,194.29 146.00,194.10 146.00,192.56 C146.00,191.73 147.69,190.16 149.75,189.07 L 153.50 187.09 L 149.81 187.04 C145.37,186.99 144.13,185.54 147.14,183.93 L 149.33 182.75 L 147.12 181.09 C144.37,179.02 145.27,178.01 149.92,177.96 L 153.50 177.91 L 149.69 175.90 C145.03,173.44 145.13,170.98 149.94,169.74 C152.54,169.06 153.02,168.63 151.94,167.94 C151.15,167.44 149.45,167.02 148.17,167.02 C146.07,167.00 145.91,166.68 146.53,163.75 C147.47,159.27 148.61,158.28 151.07,159.81 C154.73,162.10 155.24,159.84 151.61,157.38 C147.45,154.56 147.70,152.00 152.14,152.00 C154.01,152.00 155.30,151.37 155.71,150.25 C156.06,149.29 156.82,148.19 157.40,147.80 C157.97,147.42 158.08,146.75 157.65,146.31 C157.21,145.87 156.41,146.30 155.88,147.26 C154.79,149.20 152.47,149.56 151.46,147.94 C150.42,146.26 151.89,142.00 153.52,142.00 C155.33,142.00 155.41,143.13 153.75,145.02 C153.06,145.81 153.50,145.62 154.71,144.60 C155.93,143.59 157.62,143.02 158.46,143.35 C160.17,144.00 160.57,148.53 159.00,149.50 C158.45,149.84 158.00,150.99 158.00,152.06 C158.00,153.13 157.56,154.00 157.03,154.00 C156.50,154.00 156.12,155.63 156.20,157.62 C156.30,160.37 155.75,161.69 153.92,163.10 C151.94,164.62 151.82,164.96 153.25,164.98 C154.51,164.99 155.00,165.82 155.00,167.94 C155.00,169.56 154.56,171.15 154.03,171.48 C153.47,171.83 153.32,174.02 153.66,176.54 C154.17,180.25 154.00,181.00 152.64,181.00 C151.74,181.00 151.00,181.68 151.00,182.50 C151.00,183.32 151.68,184.00 152.50,184.00 C153.32,184.00 154.03,184.79 154.06,185.75 C154.21,190.34 154.75,194.71 155.41,196.75 C155.98,198.51 155.74,199.01 154.32,199.06 C152.91,199.11 153.04,199.34 154.89,200.08 C157.22,201.01 157.23,201.09 155.44,203.06 C153.96,204.70 153.91,204.97 155.20,204.47 C156.08,204.14 157.08,204.32 157.42,204.88 C157.77,205.44 156.39,206.35 154.28,206.94 ZM 395.82 363.30 C398.09,365.89 402.83,365.14 405.31,361.80 C406.88,359.68 407.33,357.50 407.35,351.80 C407.39,343.76 405.46,338.60 402.01,337.50 C396.52,335.76 392.98,340.67 392.82,350.28 C392.70,357.25 393.48,360.64 395.82,363.30 ZM 317.14 362.45 C318.75,364.50 319.95,365.04 322.37,364.80 C327.16,364.34 329.19,359.60 328.79,349.77 C328.52,342.95 328.17,341.72 325.84,339.38 C320.81,334.36 315.47,338.27 314.34,347.78 C313.58,354.23 314.51,359.10 317.14,362.45 ZM 228.61 296.89 C218.77,302.45 210.38,307.00 209.97,307.00 C208.20,307.00 208.02,303.54 209.71,301.97 C213.48,298.48 243.17,281.00 245.34,281.00 C246.59,281.00 248.46,281.61 249.48,282.36 C250.05,282.78 250.57,283.02 250.65,283.36 C250.88,284.31 247.80,286.04 233.23,294.27 C231.81,295.08 230.27,295.95 228.61,296.89 ZM 248.47 363.77 C249.62,366.77 251.51,364.16 251.80,359.17 C252.06,354.79 252.41,354.00 254.08,354.00 C256.30,354.00 258.00,357.50 258.00,362.07 C258.00,364.01 258.51,365.00 259.50,365.00 C260.64,365.00 261.00,363.77 261.00,359.93 C261.00,357.15 260.55,354.03 260.00,352.99 C259.33,351.74 259.33,350.92 260.00,350.50 C261.44,349.61 261.23,341.70 259.72,339.63 C258.73,338.27 257.30,337.94 253.47,338.19 L 248.50 338.50 L 248.22 350.44 C248.06,357.01 248.17,363.01 248.47,363.77 ZM 93.67 364.28 C94.98,366.39 96.53,363.86 96.80,359.17 C97.08,354.45 97.31,354.00 99.53,354.00 C102.04,354.00 102.64,355.21 103.23,361.42 C103.38,363.03 104.04,364.52 104.69,364.74 C106.14,365.21 106.29,342.50 104.85,339.75 C104.16,338.44 102.68,338.00 98.96,338.00 C94.51,338.00 93.99,338.23 93.89,340.25 C93.37,351.08 93.26,363.61 93.67,364.28 ZM 378.00 351.50 C378.00,362.83 378.24,365.00 379.50,365.00 C380.65,365.00 381.00,363.71 381.00,359.43 C381.00,353.95 381.04,353.87 383.75,354.18 C386.26,354.47 386.54,354.93 387.00,359.50 C387.35,362.98 387.94,364.50 388.95,364.50 C390.10,364.50 390.33,363.32 390.04,359.00 C389.83,355.98 389.76,352.38 389.87,351.00 C390.84,339.50 390.03,338.00 382.88,338.00 L 378.00 338.00 ZM 166.56 362.78 C168.26,365.20 170.94,365.66 172.76,363.84 C173.63,362.97 174.28,362.99 175.41,363.93 C177.58,365.73 179.27,364.38 177.95,361.90 C177.33,360.75 177.17,358.05 177.56,355.46 C178.25,350.86 177.00,349.39 175.17,352.66 C174.34,354.14 174.16,354.09 173.56,352.20 C173.19,351.03 173.36,349.19 173.94,348.10 C175.36,345.46 175.28,340.68 173.80,339.20 C170.22,335.62 166.39,339.81 167.41,346.19 C167.85,348.92 167.58,350.76 166.52,352.27 C164.56,355.07 164.58,359.95 166.56,362.78 ZM 349.80 364.47 C351.01,365.68 352.16,364.83 353.15,362.00 C353.99,359.60 354.77,359.00 357.10,359.00 C359.54,359.00 360.00,359.40 360.00,361.53 C360.00,363.92 362.39,365.95 363.68,364.65 C364.16,364.17 361.88,351.45 359.30,340.25 C358.68,337.56 355.37,337.21 354.60,339.75 C353.09,344.73 349.34,364.01 349.80,364.47 ZM 410.64 364.31 C412.26,365.92 413.00,363.24 413.00,355.77 C413.00,351.32 413.34,347.99 413.75,348.39 C414.16,348.79 415.62,352.58 417.00,356.80 C418.71,362.05 420.05,364.58 421.25,364.81 C422.85,365.12 423.00,363.96 423.00,351.57 C423.00,340.17 422.76,338.00 421.50,338.00 C420.29,338.00 419.99,339.60 419.96,346.25 C419.92,353.74 419.80,354.27 418.58,352.00 C417.84,350.62 416.42,346.91 415.43,343.75 C414.11,339.52 413.15,338.00 411.82,338.00 C410.16,338.00 410.00,339.10 410.00,350.83 C410.00,357.89 410.29,363.95 410.64,364.31 ZM 338.67 364.33 C340.29,365.96 341.00,364.65 341.00,360.00 C341.00,355.13 341.08,355.00 343.94,355.00 C347.82,355.00 350.00,351.80 350.00,346.11 C350.00,340.16 347.96,338.00 342.35,338.00 L 338.00 338.00 L 338.00 350.83 C338.00,357.89 338.30,363.97 338.67,364.33 ZM 360.81 184.32 C360.54,187.10 360.09,187.54 357.26,187.81 C354.59,188.07 353.81,187.67 352.85,185.57 C351.88,183.45 351.98,182.68 353.41,181.10 C354.66,179.72 354.81,179.00 353.95,178.47 C353.22,178.02 352.97,176.30 353.28,173.96 C353.56,171.88 353.35,169.75 352.82,169.22 C352.29,168.69 351.79,165.72 351.72,162.63 C351.65,159.53 351.23,157.00 350.79,157.00 C350.36,157.00 350.00,156.32 350.00,155.50 C350.00,153.85 351.16,153.68 355.88,154.62 C359.95,155.44 359.93,157.96 355.84,160.29 C353.58,161.58 352.99,162.39 353.77,163.17 C354.36,163.76 354.63,164.98 354.36,165.87 C354.09,166.77 354.59,166.26 355.47,164.75 C357.38,161.46 358.55,161.29 360.04,164.08 C361.40,166.61 360.50,169.41 358.57,168.67 C357.36,168.20 355.87,169.95 355.59,172.17 C355.54,172.53 355.16,173.17 354.75,173.58 C353.72,174.61 353.81,176.00 354.89,176.00 C355.38,176.00 356.07,174.88 356.41,173.50 C357.11,170.71 359.13,170.25 360.96,172.45 C362.50,174.30 361.31,178.33 359.44,177.62 C357.15,176.74 356.79,178.82 359.03,180.02 C360.60,180.86 361.04,181.92 360.81,184.32 ZM 202.67 364.33 C203.03,364.70 205.73,365.00 208.67,365.00 C213.66,365.00 214.00,364.84 214.00,362.56 C214.00,360.40 213.51,360.08 209.75,359.81 C205.76,359.52 205.48,359.30 205.19,356.25 C204.88,353.07 204.95,353.00 208.94,353.00 C212.60,353.00 213.00,352.76 213.00,350.50 C213.00,348.25 212.60,348.00 209.00,348.00 C205.43,348.00 205.00,347.74 205.00,345.56 C205.00,343.40 205.49,343.08 209.25,342.81 C212.78,342.55 213.55,342.12 213.82,340.25 C214.12,338.13 213.79,338.00 208.07,338.00 L 202.00 338.00 L 202.00 350.83 C202.00,357.89 202.30,363.97 202.67,364.33 ZM 145.00 338.00 L 145.00 365.00 L 151.00 365.00 C156.73,365.00 157.00,364.89 157.00,362.50 C157.00,360.20 156.63,360.00 152.50,360.00 C148.02,360.00 148.00,359.98 148.00,356.50 C148.00,353.08 148.10,353.00 152.00,353.00 C155.60,353.00 156.00,352.75 156.00,350.50 C156.00,348.25 155.60,348.00 152.00,348.00 C148.40,348.00 148.00,347.75 148.00,345.50 C148.00,343.25 148.40,343.00 152.00,343.00 C155.60,343.00 156.00,342.75 156.00,340.50 C156.00,338.14 155.70,338.00 150.50,338.00 ZM 312.50 284.67 C317.55,286.96 327.43,285.12 325.64,282.22 C325.10,281.36 301.42,268.00 300.42,268.00 C299.46,268.00 300.10,272.30 301.46,274.93 C303.18,278.26 308.26,282.74 312.50,284.67 ZM 79.00 338.00 L 79.00 365.10 L 84.75 364.80 C89.84,364.53 90.54,364.24 90.82,362.25 C91.11,360.20 90.74,360.00 86.57,360.00 C82.01,360.00 82.00,359.99 82.00,356.50 C82.00,353.08 82.10,353.00 86.00,353.00 C89.60,353.00 90.00,352.75 90.00,350.50 C90.00,348.25 89.60,348.00 86.00,348.00 C82.40,348.00 82.00,347.75 82.00,345.50 C82.00,343.25 82.40,343.00 86.00,343.00 C89.60,343.00 90.00,342.75 90.00,340.50 C90.00,338.14 89.70,338.00 84.50,338.00 ZM 188.56 362.78 C190.76,365.93 195.28,365.73 197.93,362.37 C201.89,357.33 199.88,351.23 193.36,348.51 C190.60,347.35 189.92,346.56 190.18,344.77 C190.61,341.71 194.58,341.09 195.48,343.94 C196.24,346.34 199.00,346.73 199.00,344.43 C199.00,342.51 197.09,338.76 195.60,337.77 C191.88,335.28 187.00,339.13 187.00,344.57 C187.00,349.43 188.44,351.74 192.54,353.45 C195.15,354.54 196.00,355.50 196.00,357.34 C196.00,361.00 192.95,361.68 190.47,358.56 C189.34,357.15 188.10,356.00 187.71,356.00 C186.41,356.00 186.98,360.52 188.56,362.78 ZM 180.45 278.30 C179.82,280.86 179.96,281.05 182.13,280.56 C183.43,280.26 188.77,279.11 194.00,278.00 C199.23,276.89 204.51,275.76 205.75,275.47 C211.54,274.16 206.19,270.19 197.39,269.28 C188.68,268.38 182.04,271.91 180.45,278.30 ZM 427.64 363.49 C428.47,364.32 430.45,365.00 432.05,365.00 C436.00,365.00 438.22,361.48 437.81,355.84 C437.53,351.92 437.11,351.31 433.25,349.19 C430.49,347.67 429.00,346.16 429.00,344.89 C429.00,341.86 431.98,341.32 433.99,343.99 C436.06,346.73 438.39,345.84 437.42,342.67 C434.76,333.92 425.98,335.64 426.02,344.90 C426.03,350.58 426.61,351.52 431.29,353.47 C435.20,355.11 436.17,357.78 433.63,359.89 C431.98,361.26 429.00,360.33 429.00,358.45 C429.00,356.60 427.03,355.57 425.81,356.79 C424.61,357.99 425.53,361.39 427.64,363.49 ZM 293.25 251.75 C295.50,254.58 296.79,252.57 299.84,241.47 C303.04,229.81 303.63,226.00 302.23,226.00 C300.43,226.00 293.91,231.28 292.63,233.78 C289.55,239.81 289.81,247.42 293.25,251.75 ZM 65.75 363.25 C66.61,364.21 68.58,365.00 70.13,365.00 C74.00,365.00 76.21,361.43 75.81,355.84 C75.53,351.92 75.11,351.31 71.25,349.19 C68.49,347.67 67.00,346.16 67.00,344.89 C67.00,341.93 70.08,341.24 71.80,343.82 C73.96,347.07 76.39,346.70 75.53,343.25 C73.21,333.96 63.98,335.28 64.02,344.90 C64.03,350.58 64.61,351.52 69.29,353.47 C72.10,354.65 73.00,355.61 73.00,357.41 C73.00,361.53 67.72,361.88 66.66,357.83 C66.37,356.71 65.54,355.99 64.82,356.24 C63.14,356.81 63.69,360.95 65.75,363.25 ZM 131.12 362.43 C133.75,365.76 137.27,365.74 139.93,362.37 C142.09,359.62 142.75,355.00 140.98,355.00 C140.42,355.00 139.44,356.12 138.82,357.50 C137.60,360.18 135.15,360.75 133.20,358.80 C131.73,357.33 131.61,346.60 133.04,343.93 C134.45,341.29 136.63,341.51 138.59,344.49 C139.48,345.86 140.62,346.74 141.11,346.43 C143.99,344.65 139.44,337.00 135.50,337.00 C128.42,337.00 125.31,355.04 131.12,362.43 ZM 219.65 363.51 C222.24,366.09 225.82,365.34 228.01,361.75 C229.10,359.96 229.99,357.71 230.00,356.75 C230.00,354.14 227.49,354.64 226.18,357.50 C224.61,360.95 221.26,360.81 220.30,357.25 C219.20,353.19 219.62,345.16 221.02,343.47 C222.86,341.26 224.93,341.69 226.00,344.50 C227.08,347.35 230.00,347.89 230.00,345.25 C229.99,344.29 229.08,342.01 227.97,340.19 C225.48,336.10 221.72,336.12 218.66,340.24 C214.84,345.38 215.43,359.29 219.65,363.51 ZM 234.76 363.25 C236.96,365.74 241.55,365.49 243.44,362.78 C245.68,359.58 245.73,338.00 243.50,338.00 C242.27,338.00 242.00,339.76 242.00,347.81 C242.00,358.73 240.62,362.59 237.61,360.09 C236.32,359.02 236.00,356.69 236.00,348.38 C236.00,339.82 235.74,338.00 234.50,338.00 C232.85,338.00 232.55,341.07 232.96,354.00 C233.12,359.09 233.70,362.06 234.76,363.25 ZM 112.14 362.83 C113.76,367.18 115.49,364.39 117.67,353.93 C120.30,341.34 120.49,338.00 118.60,338.00 C117.62,338.00 116.84,340.50 115.94,346.50 C115.25,351.17 114.37,355.00 114.00,355.00 C113.63,355.00 112.75,351.17 112.06,346.50 C110.96,339.15 110.53,338.00 108.83,338.00 C107.43,338.00 107.01,338.50 107.38,339.75 C107.66,340.71 108.65,345.77 109.58,351.00 C110.51,356.23 111.66,361.55 112.14,362.83 ZM 288.00 359.66 C288.00,363.74 288.35,365.00 289.50,365.00 C290.62,365.00 291.00,363.81 291.00,360.30 C291.00,357.72 292.15,351.82 293.56,347.20 C294.97,342.58 295.89,338.56 295.61,338.27 C294.22,336.89 292.15,339.31 290.98,343.66 L 289.68 348.50 L 288.10 343.25 C286.97,339.47 286.03,338.00 284.74,338.00 C282.74,338.00 282.92,339.42 286.16,348.91 C287.17,351.88 288.00,356.72 288.00,359.66 ZM 313.50 271.36 C326.87,279.99 328.46,280.06 322.97,271.77 C319.55,266.61 316.98,264.64 311.81,263.21 C308.01,262.17 302.72,262.70 303.21,264.08 C303.37,264.54 308.00,267.81 313.50,271.36 ZM 188.64 286.31 C195.23,288.32 197.79,288.28 202.62,286.09 C206.63,284.27 210.36,280.39 209.48,278.97 C208.94,278.09 185.91,282.69 184.68,283.92 C184.15,284.45 185.77,285.43 188.64,286.31 ZM 274.00 354.07 C274.00,363.12 274.26,365.00 275.50,365.00 C276.74,365.00 277.00,363.12 277.00,354.07 C277.00,343.50 277.07,343.13 279.25,342.82 C280.70,342.61 281.61,341.70 281.82,340.25 C282.12,338.11 281.81,338.00 275.50,338.00 C269.19,338.00 268.88,338.11 269.18,340.25 C269.39,341.70 270.30,342.61 271.75,342.82 C273.93,343.13 274.00,343.50 274.00,354.07 ZM 306.00 354.07 C306.00,363.12 306.26,365.00 307.50,365.00 C308.74,365.00 309.00,363.12 309.00,354.07 C309.00,343.50 309.07,343.13 311.25,342.82 C312.70,342.61 313.61,341.70 313.82,340.25 C314.12,338.11 313.81,338.00 307.50,338.00 C301.19,338.00 300.88,338.11 301.18,340.25 C301.39,341.70 302.30,342.61 303.75,342.82 C305.93,343.13 306.00,343.50 306.00,354.07 ZM 368.00 354.07 C368.00,363.12 368.26,365.00 369.50,365.00 C370.74,365.00 371.00,363.12 371.00,354.07 C371.00,343.50 371.07,343.13 373.25,342.82 C374.70,342.61 375.61,341.70 375.82,340.25 C376.12,338.11 375.81,338.00 369.50,338.00 C363.19,338.00 362.88,338.11 363.18,340.25 C363.39,341.70 364.30,342.61 365.75,342.82 C367.93,343.13 368.00,343.50 368.00,354.07 ZM 301.53 247.75 C300.66,251.86 302.16,252.00 305.99,248.17 C309.89,244.26 311.57,238.22 310.41,232.23 C309.00,224.89 307.06,226.12 304.46,236.00 C303.23,240.68 301.91,245.96 301.53,247.75 ZM 402.44 358.78 C401.59,360.00 400.49,361.00 400.00,361.00 C396.69,361.00 394.74,350.44 396.98,344.57 C398.14,341.49 401.47,341.14 402.96,343.93 C404.56,346.91 404.23,356.23 402.44,358.78 ZM 325.08 357.30 C323.88,360.44 321.47,361.33 319.49,359.34 C317.15,357.01 317.78,344.15 320.31,342.60 C324.47,340.07 327.77,350.22 325.08,357.30 ZM 244.88 81.38 C239.02,82.54 238.30,82.24 237.67,78.34 C236.92,73.75 237.40,73.00 241.06,73.00 C244.51,73.00 245.01,74.67 241.75,75.29 L 239.50 75.73 L 241.75 75.86 C244.22,76.01 244.92,78.00 242.50,78.00 C241.68,78.00 241.00,78.39 241.00,78.88 C241.00,79.36 242.12,79.75 243.50,79.75 C245.74,79.75 246.00,79.34 246.00,75.88 C246.00,71.44 248.16,70.56 250.11,74.21 L 251.30 76.43 L 252.12 74.21 C252.57,73.00 253.63,72.00 254.47,72.00 C255.62,72.00 256.00,73.12 256.00,76.50 C256.00,80.96 254.06,83.07 253.93,78.75 L 253.86 76.50 L 252.78 78.75 C252.18,79.99 251.38,81.00 251.00,81.00 C250.62,81.00 249.82,79.99 249.22,78.75 C248.15,76.53 248.13,76.53 248.07,78.62 C248.02,80.18 247.17,80.92 244.88,81.38 ZM 206.78 255.25 C208.32,257.01 211.00,257.65 211.00,256.25 C211.00,255.84 209.81,250.66 208.35,244.75 C205.61,233.68 203.76,231.26 202.48,237.09 C201.22,242.81 203.20,251.14 206.78,255.25 ZM 170.46 126.07 C169.60,127.46 168.79,127.22 165.55,124.63 C162.65,122.31 162.62,122.22 164.32,119.63 C166.23,116.72 168.75,116.18 169.64,118.50 C170.23,120.05 173.00,120.62 173.00,119.19 C173.00,118.75 172.34,117.51 171.53,116.44 C167.92,111.66 170.61,109.67 177.05,112.38 C180.24,113.72 180.27,113.79 178.16,114.91 C176.97,115.55 175.33,117.66 174.52,119.61 C173.33,122.46 172.65,123.02 171.02,122.51 C168.95,121.85 168.18,123.38 170.02,124.51 C170.58,124.86 170.77,125.56 170.46,126.07 ZM 210.71 242.33 C212.21,248.38 213.82,252.89 214.42,252.69 C216.17,252.11 217.19,244.42 216.07,240.25 C215.11,236.68 209.63,230.04 208.54,231.13 C208.28,231.39 209.25,236.43 210.71,242.33 ZM 185.96 107.55 C184.62,109.16 180.52,109.58 181.50,108.00 C181.84,107.45 182.77,107.00 183.56,107.00 C184.35,107.00 185.00,106.56 185.00,106.03 C185.00,105.48 183.72,105.31 182.12,105.63 C180.51,105.95 178.95,105.73 178.58,105.12 C177.53,103.44 179.85,100.00 182.04,100.00 C183.12,100.00 184.00,99.41 184.00,98.69 C184.00,96.96 189.73,92.75 190.46,93.94 C190.78,94.45 190.57,95.15 190.00,95.50 C189.35,95.90 189.72,97.20 191.00,99.00 C192.49,101.10 192.72,102.06 191.84,102.60 C191.13,103.04 190.05,102.46 189.20,101.17 C187.42,98.50 185.40,98.39 184.06,100.88 C183.25,102.39 183.39,102.74 184.74,102.63 C186.82,102.47 187.59,105.58 185.96,107.55 ZM 264.64 364.31 C266.41,366.08 267.00,362.74 267.00,350.94 C267.00,340.10 266.76,338.00 265.50,338.00 C264.24,338.00 264.00,340.09 264.00,350.83 C264.00,357.89 264.29,363.95 264.64,364.31 ZM 357.76 208.00 C357.57,209.04 355.97,209.60 352.53,209.81 C347.71,210.12 347.62,210.08 349.30,208.22 C350.25,207.17 350.95,205.45 350.86,204.40 C350.45,199.92 351.00,198.19 352.75,198.53 C358.86,199.74 360.00,200.15 360.00,201.15 C360.00,201.87 358.59,202.07 356.00,201.73 C351.22,201.09 350.97,201.81 355.02,204.50 C356.68,205.60 357.91,207.18 357.76,208.00 ZM 123.00 351.58 C123.00,362.00 123.29,365.07 124.25,364.75 C125.15,364.45 125.58,360.61 125.78,351.17 C126.02,339.90 125.84,338.00 124.53,338.00 C123.23,338.00 123.00,340.06 123.00,351.58 ZM 333.46 112.42 C332.53,113.84 330.95,115.00 329.96,115.00 C327.66,115.00 325.00,112.39 325.00,110.13 C325.00,105.99 330.40,104.57 333.42,107.92 C335.06,109.72 335.06,109.98 333.46,112.42 ZM 348.80 230.80 C347.07,232.53 344.56,232.28 342.65,230.17 C339.70,226.90 341.24,223.00 345.50,223.00 C349.49,223.00 351.61,227.99 348.80,230.80 ZM 310.43 95.43 C308.62,97.23 308.31,97.25 305.25,95.78 C302.55,94.48 302.48,93.69 304.72,89.90 C306.60,86.71 307.20,86.50 310.07,88.04 C312.41,89.29 312.60,93.26 310.43,95.43 ZM 317.00 101.72 C317.00,103.19 315.39,103.44 314.56,102.09 C314.25,101.59 314.27,100.46 314.60,99.59 C315.29,97.81 313.49,97.39 312.45,99.09 C311.96,99.87 311.46,99.86 310.67,99.07 C309.87,98.27 310.44,97.10 312.78,94.76 L 316.00 91.54 L 318.63 94.17 L 321.26 96.80 L 319.13 98.62 C317.96,99.62 317.00,101.02 317.00,101.72 ZM 163.47 232.31 C161.52,233.24 159.72,234.00 159.47,234.00 C158.53,234.00 159.03,231.37 160.20,230.20 C160.86,229.54 160.97,228.95 160.45,228.88 C159.93,228.82 158.86,228.71 158.09,228.63 C155.29,228.37 156.03,226.35 159.55,224.68 C163.77,222.67 165.88,223.37 163.50,226.00 C161.71,227.98 162.83,229.39 165.41,228.40 C168.67,227.14 166.92,230.67 163.47,232.31 ZM 298.00 89.00 C298.00,91.34 297.57,91.39 293.25,89.51 C289.41,87.84 289.21,86.61 292.25,83.41 C294.71,80.82 295.74,80.55 297.96,81.95 C299.21,82.74 299.15,83.18 297.56,84.94 C296.52,86.09 296.20,87.00 296.85,87.00 C297.48,87.00 298.00,87.90 298.00,89.00 ZM 162.00 141.50 C162.00,143.34 161.38,143.31 157.25,141.25 C154.08,139.68 152.49,136.21 155.47,137.35 C157.42,138.10 158.64,136.01 156.89,134.93 C154.15,133.24 157.34,132.08 160.75,133.52 C164.34,135.05 165.46,138.60 162.00,137.50 C160.58,137.05 160.00,137.32 160.00,138.43 C160.00,139.29 160.45,140.00 161.00,140.00 C161.55,140.00 162.00,140.68 162.00,141.50 ZM 231.00 82.00 C231.00,83.97 229.57,84.73 228.65,83.24 C228.39,82.83 227.87,80.80 227.48,78.74 C226.74,74.81 228.11,73.58 229.82,76.64 C230.85,78.48 233.00,77.66 233.00,75.44 C233.00,73.14 234.91,73.77 235.45,76.25 C236.50,81.03 236.46,82.31 235.25,82.73 C234.56,82.97 234.00,82.45 234.00,81.58 C234.00,80.71 233.32,80.00 232.50,80.00 C231.67,80.00 231.00,80.89 231.00,82.00 ZM 343.00 240.06 C343.00,241.47 341.85,241.21 338.20,238.98 C334.58,236.78 334.74,235.00 338.56,235.00 C341.35,235.00 341.82,233.53 339.33,232.57 C338.15,232.12 337.98,231.62 338.74,230.86 C339.49,230.11 340.71,230.46 342.92,232.10 C346.45,234.71 346.45,236.19 342.94,237.02 C341.30,237.40 340.92,237.83 341.76,238.35 C342.44,238.77 343.00,239.54 343.00,240.06 ZM 338.00 122.02 C335.69,123.48 334.25,123.19 332.67,120.94 C329.49,116.40 334.95,110.84 339.00,114.50 C340.10,115.49 340.99,117.25 340.98,118.40 C340.96,120.42 340.89,120.41 339.11,118.09 C337.92,116.55 336.67,115.91 335.63,116.31 C333.82,117.01 333.44,119.54 335.00,120.50 C335.55,120.84 336.00,120.32 336.00,119.34 C336.00,117.66 336.08,117.65 337.75,119.32 C339.28,120.85 339.31,121.19 338.00,122.02 ZM 325.69 105.83 C322.95,108.39 320.74,108.59 318.95,106.44 C317.39,104.56 318.63,100.25 321.20,98.64 C323.62,97.12 324.64,98.64 322.66,100.82 C320.89,102.78 320.45,105.00 321.85,105.00 C322.31,105.00 323.50,104.10 324.50,103.00 C325.50,101.90 326.69,101.00 327.15,101.00 C328.79,101.00 327.97,103.67 325.69,105.83 ZM 196.77 98.00 C194.96,100.90 194.21,100.50 192.99,95.98 C191.30,89.69 192.97,88.44 198.04,92.19 C201.28,94.58 201.83,96.00 199.51,96.00 C198.69,96.00 197.45,96.90 196.77,98.00 ZM 213.07 89.96 C209.82,91.70 208.25,91.14 207.10,87.85 C205.56,83.45 205.66,83.08 208.64,81.95 C211.98,80.68 212.94,81.55 210.43,83.56 C208.56,85.05 208.57,85.08 210.75,84.48 C213.44,83.74 213.66,84.74 211.25,86.71 C209.66,88.01 209.75,88.08 212.25,87.55 C215.42,86.87 215.94,88.43 213.07,89.96 ZM 352.00 147.89 C352.00,149.50 348.45,149.25 347.04,147.55 C345.55,145.75 346.02,142.83 347.90,142.20 C348.91,141.86 349.15,142.33 348.75,143.87 C348.44,145.04 348.56,146.23 349.03,146.52 C349.49,146.80 350.01,145.79 350.18,144.28 C350.57,140.92 353.43,140.07 354.93,142.87 C356.25,145.33 355.32,148.06 353.42,147.33 C352.64,147.03 352.00,147.28 352.00,147.89 ZM 344.64 132.50 C343.83,134.61 341.27,134.37 340.04,132.07 C338.72,129.61 338.70,127.00 340.00,127.00 C340.55,127.00 341.00,127.90 341.00,129.00 C341.00,130.10 341.46,131.00 342.02,131.00 C342.61,131.00 342.77,129.94 342.41,128.51 C341.67,125.57 344.15,124.05 346.51,126.01 C348.39,127.57 348.46,131.00 346.61,131.00 C345.84,131.00 344.95,131.68 344.64,132.50 ZM 159.85 222.90 C155.24,224.51 154.56,224.31 153.31,221.00 C152.38,218.55 152.43,218.00 153.59,218.00 C154.36,218.00 155.00,218.68 155.00,219.50 C155.00,220.32 155.41,221.00 155.91,221.00 C156.40,221.00 156.58,220.10 156.29,219.00 C156.00,217.88 156.26,217.00 156.88,217.00 C157.50,217.00 158.00,217.68 158.00,218.50 C158.00,219.32 158.46,220.00 159.02,220.00 C159.61,220.00 159.77,218.94 159.41,217.50 C158.50,213.86 160.60,214.41 161.90,218.15 C162.51,219.88 163.00,221.41 163.00,221.55 C163.00,221.69 161.58,222.30 159.85,222.90 ZM 285.29 83.75 C284.63,85.55 279.06,85.32 278.35,83.46 C278.02,82.61 278.10,81.60 278.51,81.21 C278.93,80.82 279.47,81.06 279.72,81.75 C279.97,82.44 280.92,82.99 281.83,82.98 C283.13,82.96 282.97,82.55 281.09,81.11 C277.19,78.10 279.65,74.78 284.42,76.61 C285.29,76.94 286.00,77.84 286.00,78.61 C286.00,80.33 284.85,80.39 282.96,78.75 C282.18,78.06 282.48,78.62 283.64,80.00 C284.80,81.38 285.54,83.06 285.29,83.75 ZM 268.70 80.34 C268.35,81.25 267.26,81.99 266.28,81.97 C263.72,81.93 260.85,80.05 261.57,78.89 C261.95,78.26 262.70,78.34 263.61,79.09 C264.40,79.75 265.37,79.93 265.77,79.51 C266.17,79.08 266.05,78.56 265.50,78.35 C262.80,77.32 261.76,76.07 262.35,74.53 C263.12,72.53 268.11,72.78 268.79,74.85 C269.12,75.86 268.63,76.02 266.87,75.47 L 264.50 74.73 L 266.92 76.71 C268.48,77.99 269.11,79.27 268.70,80.34 ZM 226.02 84.48 C224.32,86.53 221.67,86.40 219.65,84.17 C217.70,82.01 217.54,79.86 219.20,78.20 C220.66,76.74 224.65,76.62 225.50,78.00 C225.85,78.57 225.01,79.00 223.56,79.00 C221.69,79.00 221.00,79.53 221.00,80.94 C221.00,83.51 222.72,84.47 224.57,82.94 C226.51,81.33 227.64,82.52 226.02,84.48 ZM 361.00 194.00 C361.00,195.79 358.09,198.96 357.89,197.37 C357.84,196.89 357.72,195.61 357.64,194.52 C357.56,193.43 356.65,192.37 355.62,192.17 C354.04,191.86 353.84,192.22 354.39,194.40 C354.88,196.38 354.66,197.00 353.46,197.00 C352.27,197.00 351.95,196.18 352.19,193.75 C352.45,191.02 352.95,190.45 355.31,190.18 C358.54,189.81 361.00,191.46 361.00,194.00 ZM 386.81 346.34 C386.58,348.63 385.94,349.58 384.46,349.79 C381.79,350.17 381.00,349.28 381.00,345.89 C381.00,342.64 382.23,341.62 385.07,342.52 C386.66,343.03 387.05,343.87 386.81,346.34 ZM 101.42 349.39 C97.99,350.71 97.00,350.05 97.00,346.47 C97.00,342.56 99.07,340.98 101.51,343.01 C103.48,344.64 103.42,348.63 101.42,349.39 ZM 346.80 346.91 C346.57,348.90 345.86,349.57 343.75,349.82 C341.20,350.11 341.00,349.87 341.00,346.54 C341.00,344.25 341.55,342.73 342.51,342.36 C344.79,341.48 347.14,343.99 346.80,346.91 ZM 257.39 347.75 C256.79,348.71 255.33,349.64 254.15,349.82 C252.25,350.10 252.00,349.67 252.00,346.00 C252.00,342.33 252.25,341.90 254.15,342.18 C257.14,342.63 258.81,345.49 257.39,347.75 ZM 166.23 239.77 C166.72,242.57 164.52,242.02 162.75,238.91 C160.47,234.90 160.50,233.66 162.85,234.92 C164.18,235.63 165.31,235.47 166.93,234.34 C168.46,233.27 169.49,233.09 170.19,233.79 C170.89,234.49 170.38,235.36 168.59,236.53 C167.15,237.48 166.09,238.93 166.23,239.77 ZM 350.83 138.23 C349.99,137.39 349.01,137.46 346.98,138.51 C344.45,139.82 343.00,139.63 343.00,137.99 C343.00,137.62 344.12,136.81 345.50,136.18 C346.88,135.56 348.00,134.36 348.00,133.52 C348.00,130.77 350.78,131.94 351.91,135.16 C353.11,138.61 352.62,140.02 350.83,138.23 ZM 167.00 130.57 C167.00,132.24 166.17,132.33 163.73,130.91 C162.76,130.34 161.07,130.16 159.98,130.51 C157.60,131.26 157.54,130.79 159.53,126.95 C161.27,123.59 163.00,123.08 163.00,125.93 C163.00,127.00 163.90,128.15 165.00,128.50 C166.10,128.85 167.00,129.78 167.00,130.57 ZM 205.00 92.93 C205.00,94.80 203.29,94.09 201.61,91.53 C200.62,90.02 199.41,89.29 198.50,89.64 C195.74,90.70 196.96,88.07 199.95,86.53 C203.82,84.52 205.67,84.48 204.05,86.44 C203.19,87.48 203.15,88.42 203.93,89.87 C204.52,90.97 205.00,92.35 205.00,92.93 ZM 274.65 80.00 C273.82,84.13 272.00,83.78 272.00,79.50 C272.00,77.57 271.55,76.00 271.00,76.00 C270.45,76.00 270.00,75.52 270.00,74.94 C270.00,73.45 277.25,74.21 277.76,75.75 C277.98,76.44 277.51,77.00 276.71,77.00 C275.89,77.00 274.99,78.31 274.65,80.00 ZM 355.61 215.22 C354.73,219.61 352.18,221.94 352.90,217.70 C352.97,217.27 351.67,216.43 350.02,215.86 C348.36,215.28 347.00,214.13 347.00,213.30 C347.00,212.47 347.56,212.00 348.25,212.26 C352.39,213.81 354.00,214.04 354.00,213.07 C354.00,212.48 354.51,212.00 355.12,212.00 C355.86,212.00 356.03,213.12 355.61,215.22 ZM 172.45 360.07 C171.35,361.85 169.03,360.98 168.42,358.56 C167.80,356.08 168.48,354.00 169.90,354.00 C171.03,354.00 173.13,358.98 172.45,360.07 ZM 353.00 221.95 C353.00,223.22 351.43,223.18 347.75,221.84 C346.24,221.29 345.00,220.20 345.00,219.42 C345.00,217.66 345.25,217.66 349.53,219.45 C351.44,220.25 353.00,221.37 353.00,221.95 ZM 341.10 124.93 C337.82,127.26 337.35,127.38 336.55,126.08 C335.94,125.09 341.06,121.00 342.90,121.00 C344.89,121.00 344.05,122.83 341.10,124.93 ZM 260.00 76.50 C260.00,79.98 259.63,81.00 258.38,81.00 C257.19,81.00 256.93,80.40 257.37,78.75 C257.70,77.51 257.98,75.49 257.99,74.25 C257.99,73.01 258.45,72.00 259.00,72.00 C259.55,72.00 260.00,74.03 260.00,76.50 ZM 358.00 350.56 C358.00,353.07 357.56,354.00 356.38,354.00 C355.09,354.00 354.88,353.35 355.38,350.88 C355.72,349.16 356.00,347.33 356.00,346.82 C356.00,346.30 356.45,346.16 357.00,346.50 C357.55,346.84 358.00,348.67 358.00,350.56 ZM 328.03 111.31 C328.06,113.32 328.17,113.36 329.37,111.78 C330.36,110.48 330.95,110.35 331.83,111.23 C332.61,112.01 333.00,112.04 333.00,111.32 C333.00,109.72 330.24,107.73 329.04,108.47 C328.47,108.83 328.01,110.10 328.03,111.31 ZM 344.35 227.46 C345.11,229.46 348.00,229.46 348.00,227.47 C348.00,225.87 345.34,224.32 344.33,225.33 C344.01,225.65 344.02,226.61 344.35,227.46 ZM 355.00 184.00 C355.00,185.51 355.52,186.05 356.75,185.81 C357.71,185.62 358.50,184.81 358.50,184.00 C358.50,183.19 357.71,182.38 356.75,182.19 C355.52,181.95 355.00,182.49 355.00,184.00 ZM 306.00 93.12 C306.00,93.61 306.63,94.00 307.39,94.00 C308.89,94.00 310.24,91.57 309.27,90.61 C308.57,89.90 306.00,91.88 306.00,93.12 ZM 172.00 344.00 C172.00,345.10 171.55,346.00 171.00,346.00 C170.45,346.00 170.00,345.10 170.00,344.00 C170.00,342.90 170.45,342.00 171.00,342.00 C171.55,342.00 172.00,342.90 172.00,344.00 Z" fill="rgb(111,112,115)"/>
<path d="M 76.00 442.00 L 75.50 461.50 L 65.25 461.78 L 55.00 462.07 L 55.00 395.00 L 84.90 395.00 L 89.33 408.75 C91.77,416.31 94.80,425.99 96.07,430.25 C97.34,434.51 98.68,438.00 99.03,438.00 C99.39,438.00 100.24,436.09 100.92,433.75 C101.61,431.41 104.64,421.74 107.65,412.25 L 113.14 395.00 L 143.00 395.00 L 143.00 462.00 L 123.00 462.00 L 123.00 442.50 C123.00,431.77 122.62,423.00 122.16,423.00 C121.70,423.00 119.86,427.84 118.08,433.75 C116.30,439.66 113.64,448.33 112.17,453.00 L 109.50 461.50 L 88.70 461.50 L 86.93 456.00 C85.95,452.98 83.51,444.88 81.49,438.00 C79.48,431.12 77.53,424.83 77.17,424.00 C76.80,423.17 76.28,431.27 76.00,442.00 ZM 360.53 458.99 C355.67,461.44 354.99,461.51 330.28,461.83 L 305.00 462.15 L 305.00 395.00 L 327.95 395.00 C353.60,395.00 359.04,395.76 364.25,400.05 C370.06,404.84 371.48,410.57 371.45,429.00 C371.43,444.14 371.36,444.64 368.46,450.49 C365.97,455.52 364.71,456.87 360.53,458.99 ZM 403.90 456.22 L 402.49 461.50 L 391.24 461.78 C383.38,461.98 380.00,461.73 380.00,460.93 C380.00,460.31 382.95,450.51 386.57,439.15 C390.18,427.79 394.79,413.22 396.82,406.76 L 400.50 395.03 L 432.50 395.00 L 438.91 415.75 C442.44,427.16 447.04,441.89 449.13,448.48 C451.22,455.07 452.57,460.83 452.13,461.27 C451.69,461.71 446.64,461.94 440.91,461.79 L 430.50 461.50 L 427.19 451.50 L 416.25 451.22 L 405.31 450.94 ZM 208.91 460.00 C204.79,462.33 203.47,462.51 189.00,462.73 C171.89,462.97 165.64,461.88 161.38,457.90 C157.53,454.30 156.00,450.65 156.00,445.05 L 156.00 440.00 L 166.00 440.00 C174.22,440.00 176.00,440.27 176.00,441.50 C176.00,442.33 176.90,443.90 178.00,445.00 C179.63,446.63 181.33,447.00 187.30,447.00 C195.55,447.00 197.00,446.14 197.00,441.28 C197.00,436.99 195.58,436.43 181.30,435.11 C168.94,433.96 164.85,432.65 160.76,428.52 C153.87,421.56 154.60,405.22 162.12,398.31 C165.55,395.16 171.77,394.05 186.20,394.02 C202.57,393.99 207.73,395.09 212.04,399.54 C214.90,402.49 215.43,403.83 215.81,408.99 L 216.24 415.00 L 206.23 415.00 C196.53,415.00 196.20,414.93 195.62,412.63 C195.14,410.70 194.22,410.17 190.64,409.77 C188.23,409.50 184.51,409.56 182.38,409.90 C178.94,410.45 178.47,410.87 178.20,413.60 C178.03,415.29 178.50,417.17 179.24,417.79 C179.98,418.40 186.32,419.57 193.32,420.38 C207.02,421.98 212.12,423.78 215.33,428.19 C219.34,433.67 219.34,449.36 215.34,454.77 C214.23,456.27 211.34,458.62 208.91,460.00 ZM 274.91 461.92 C266.79,463.67 250.34,463.23 244.18,461.10 C237.96,458.95 232.56,454.11 230.77,449.07 C229.92,446.69 229.50,439.50 229.50,427.50 C229.50,410.16 229.59,409.34 232.00,405.04 C236.96,396.18 244.91,393.52 264.49,394.17 C274.81,394.52 277.28,394.93 281.53,397.04 C287.95,400.22 291.00,405.76 291.00,414.25 L 291.00 420.07 L 280.75 419.78 L 270.50 419.50 L 270.18 416.76 C269.75,413.00 266.47,411.00 260.73,411.00 C256.94,411.00 255.38,411.53 253.45,413.45 C251.13,415.78 251.00,416.53 251.00,427.41 C251.00,433.73 251.50,440.00 252.11,441.34 C254.07,445.64 261.00,447.32 266.48,444.83 C268.88,443.74 269.46,442.60 270.22,437.50 C270.50,435.66 271.40,435.48 281.40,435.21 L 292.28 434.93 L 291.73 440.99 C291.05,448.52 287.54,455.81 283.21,458.67 C281.41,459.87 277.67,461.33 274.91,461.92 ZM 326.75 445.42 C327.16,445.83 331.65,446.02 336.72,445.84 C342.53,445.62 345.69,445.54 347.42,443.93 C349.50,441.98 349.50,437.82 349.50,428.54 L 349.50 428.01 C349.50,417.94 349.14,413.74 348.20,412.80 C347.35,411.95 343.29,411.38 336.45,411.16 L 326.00 410.82 L 326.00 427.74 C326.00,437.05 326.34,445.01 326.75,445.42 ZM 410.54 435.06 C411.24,436.20 421.68,436.32 422.38,435.20 C422.89,434.37 417.50,413.16 416.53,412.20 C416.24,411.91 415.84,411.85 415.65,412.08 C414.71,413.20 410.03,434.24 410.54,435.06 Z" fill="rgb(124,47,50)"/>
<path d="M 0.00 249.50 L 0.00 0.00 L 252.00 0.00 L 504.00 0.00 L 504.00 249.50 L 504.00 499.00 L 252.00 499.00 L 0.00 499.00 L 0.00 249.50 ZM 208.91 460.00 C211.34,458.62 214.23,456.27 215.34,454.77 C219.34,449.36 219.34,433.67 215.33,428.19 C212.12,423.78 207.02,421.98 193.32,420.38 C186.32,419.57 179.98,418.40 179.24,417.79 C178.50,417.17 178.03,415.29 178.20,413.60 C178.47,410.87 178.94,410.45 182.38,409.90 C184.51,409.56 188.23,409.50 190.64,409.77 C194.22,410.17 195.14,410.70 195.62,412.63 C196.20,414.93 196.53,415.00 206.23,415.00 L 216.24 415.00 L 215.81 408.99 C215.43,403.83 214.90,402.49 212.04,399.54 C207.73,395.09 202.57,393.99 186.20,394.02 C171.77,394.05 165.55,395.16 162.12,398.31 C154.60,405.22 153.87,421.56 160.76,428.52 C164.85,432.65 168.94,433.96 181.30,435.11 C195.58,436.43 197.00,436.99 197.00,441.28 C197.00,446.14 195.55,447.00 187.30,447.00 C181.33,447.00 179.63,446.63 178.00,445.00 C176.90,443.90 176.00,442.33 176.00,441.50 C176.00,440.27 174.22,440.00 166.00,440.00 L 156.00 440.00 L 156.00 445.05 C156.00,450.65 157.53,454.30 161.38,457.90 C165.64,461.88 171.89,462.97 189.00,462.73 C203.47,462.51 204.79,462.33 208.91,460.00 ZM 274.91 461.92 C277.67,461.33 281.41,459.87 283.21,458.67 C287.54,455.81 291.05,448.52 291.73,440.99 L 292.28 434.93 L 281.40 435.21 C271.40,435.48 270.50,435.66 270.22,437.50 C269.46,442.60 268.88,443.74 266.48,444.83 C261.00,447.32 254.07,445.64 252.11,441.34 C251.50,440.00 251.00,433.73 251.00,427.41 C251.00,416.53 251.13,415.78 253.45,413.45 C255.38,411.53 256.94,411.00 260.73,411.00 C266.47,411.00 269.75,413.00 270.18,416.76 L 270.50 419.50 L 280.75 419.78 L 291.00 420.07 L 291.00 414.25 C291.00,405.76 287.95,400.22 281.53,397.04 C277.28,394.93 274.81,394.52 264.49,394.17 C244.91,393.52 236.96,396.18 232.00,405.04 C229.59,409.34 229.50,410.16 229.50,427.50 C229.50,439.50 229.92,446.69 230.77,449.07 C232.56,454.11 237.96,458.95 244.18,461.10 C250.34,463.23 266.79,463.67 274.91,461.92 ZM 76.00 442.00 C76.28,431.27 76.80,423.17 77.17,424.00 C77.53,424.83 79.48,431.12 81.49,438.00 C83.51,444.88 85.95,452.98 86.93,456.00 L 88.70 461.50 L 99.10 461.50 L 109.50 461.50 L 112.17 453.00 C113.64,448.33 116.30,439.66 118.08,433.75 C119.86,427.84 121.70,423.00 122.16,423.00 C122.62,423.00 123.00,431.77 123.00,442.50 L 123.00 462.00 L 133.00 462.00 L 143.00 462.00 L 143.00 428.50 L 143.00 395.00 L 128.07 395.00 L 113.14 395.00 L 107.65 412.25 C104.64,421.74 101.61,431.41 100.92,433.75 C100.24,436.09 99.39,438.00 99.03,438.00 C98.68,438.00 97.34,434.51 96.07,430.25 C94.80,425.99 91.77,416.31 89.33,408.75 L 84.90 395.00 L 69.95 395.00 L 55.00 395.00 L 55.00 428.53 L 55.00 462.07 L 65.25 461.78 L 75.50 461.50 L 76.00 442.00 ZM 360.53 458.99 C364.71,456.87 365.97,455.52 368.46,450.49 C371.36,444.64 371.43,444.14 371.45,429.00 C371.48,410.57 370.06,404.84 364.25,400.05 C359.04,395.76 353.60,395.00 327.95,395.00 L 305.00 395.00 L 305.00 428.58 L 305.00 462.15 L 330.28 461.83 C354.99,461.51 355.67,461.44 360.53,458.99 ZM 403.90 456.22 L 405.31 450.94 L 416.25 451.22 L 427.19 451.50 L 428.84 456.50 L 430.50 461.50 L 440.91 461.79 C446.64,461.94 451.69,461.71 452.13,461.27 C452.57,460.83 451.22,455.07 449.13,448.48 C447.04,441.89 442.44,427.16 438.91,415.75 L 432.50 395.00 L 416.50 395.01 L 400.50 395.03 L 396.82 406.76 C394.79,413.22 390.18,427.79 386.57,439.15 C382.95,450.51 380.00,460.31 380.00,460.93 C380.00,461.73 383.38,461.98 391.24,461.78 L 402.49 461.50 L 403.90 456.22 ZM 453.00 208.00 L 453.00 39.00 L 253.00 39.00 L 53.00 39.00 L 53.00 208.00 L 53.00 377.00 L 253.00 377.00 L 453.00 377.00 L 453.00 208.00 ZM 326.75 445.42 C326.34,445.01 326.00,437.05 326.00,427.74 L 326.00 410.82 L 336.45 411.16 C343.29,411.38 347.35,411.95 348.20,412.80 C349.14,413.74 349.50,417.94 349.50,428.01 C349.50,445.55 349.63,445.36 336.72,445.84 C331.65,446.02 327.16,445.83 326.75,445.42 ZM 410.54 435.06 C410.03,434.24 414.71,413.20 415.65,412.08 C415.84,411.85 416.24,411.91 416.53,412.20 C417.50,413.16 422.89,434.37 422.38,435.20 C421.68,436.32 411.24,436.20 410.54,435.06 ZM 65.75 363.25 C63.69,360.95 63.14,356.81 64.82,356.24 C65.54,355.99 66.37,356.71 66.66,357.83 C67.72,361.88 73.00,361.53 73.00,357.41 C73.00,355.61 72.10,354.65 69.29,353.47 C64.61,351.52 64.03,350.58 64.02,344.90 C63.98,335.28 73.21,333.96 75.53,343.25 C76.39,346.70 73.96,347.07 71.80,343.82 C70.08,341.24 67.00,341.93 67.00,344.89 C67.00,346.16 68.49,347.67 71.25,349.19 C75.11,351.31 75.53,351.92 75.81,355.84 C76.21,361.43 74.00,365.00 70.13,365.00 C68.58,365.00 66.61,364.21 65.75,363.25 ZM 79.00 351.55 L 79.00 338.00 L 84.50 338.00 C89.70,338.00 90.00,338.14 90.00,340.50 C90.00,342.75 89.60,343.00 86.00,343.00 C82.40,343.00 82.00,343.25 82.00,345.50 C82.00,347.75 82.40,348.00 86.00,348.00 C89.60,348.00 90.00,348.25 90.00,350.50 C90.00,352.75 89.60,353.00 86.00,353.00 C82.10,353.00 82.00,353.08 82.00,356.50 C82.00,359.99 82.01,360.00 86.57,360.00 C90.74,360.00 91.11,360.20 90.82,362.25 C90.54,364.24 89.84,364.53 84.75,364.80 L 79.00 365.10 L 79.00 351.55 ZM 93.67 364.28 C93.26,363.61 93.37,351.08 93.89,340.25 C93.99,338.23 94.51,338.00 98.96,338.00 C102.68,338.00 104.16,338.44 104.85,339.75 C106.29,342.50 106.14,365.21 104.69,364.74 C104.04,364.52 103.38,363.03 103.23,361.42 C102.64,355.21 102.04,354.00 99.53,354.00 C97.31,354.00 97.08,354.45 96.80,359.17 C96.53,363.86 94.98,366.39 93.67,364.28 ZM 101.42 349.39 C103.42,348.63 103.48,344.64 101.51,343.01 C99.07,340.98 97.00,342.56 97.00,346.47 C97.00,350.05 97.99,350.71 101.42,349.39 ZM 112.14 362.83 C111.66,361.55 110.51,356.23 109.58,351.00 C108.65,345.77 107.66,340.71 107.38,339.75 C107.01,338.50 107.43,338.00 108.83,338.00 C110.53,338.00 110.96,339.15 112.06,346.50 C112.75,351.17 113.63,355.00 114.00,355.00 C114.37,355.00 115.25,351.17 115.94,346.50 C116.84,340.50 117.62,338.00 118.60,338.00 C120.49,338.00 120.30,341.34 117.67,353.93 C115.49,364.39 113.76,367.18 112.14,362.83 ZM 123.00 351.58 C123.00,340.06 123.23,338.00 124.53,338.00 C125.84,338.00 126.02,339.90 125.78,351.17 C125.58,360.61 125.15,364.45 124.25,364.75 C123.29,365.07 123.00,362.00 123.00,351.58 ZM 131.12 362.43 C125.31,355.04 128.42,337.00 135.50,337.00 C139.44,337.00 143.99,344.65 141.11,346.43 C140.62,346.74 139.48,345.86 138.59,344.49 C136.63,341.51 134.45,341.29 133.04,343.93 C131.61,346.60 131.73,357.33 133.20,358.80 C135.15,360.75 137.60,360.18 138.82,357.50 C139.44,356.12 140.42,355.00 140.98,355.00 C142.75,355.00 142.09,359.62 139.93,362.37 C137.27,365.74 133.75,365.76 131.12,362.43 ZM 145.00 351.50 L 145.00 338.00 L 150.50 338.00 C155.70,338.00 156.00,338.14 156.00,340.50 C156.00,342.75 155.60,343.00 152.00,343.00 C148.40,343.00 148.00,343.25 148.00,345.50 C148.00,347.75 148.40,348.00 152.00,348.00 C155.60,348.00 156.00,348.25 156.00,350.50 C156.00,352.75 155.60,353.00 152.00,353.00 C148.10,353.00 148.00,353.08 148.00,356.50 C148.00,359.98 148.02,360.00 152.50,360.00 C156.63,360.00 157.00,360.20 157.00,362.50 C157.00,364.89 156.73,365.00 151.00,365.00 L 145.00 365.00 L 145.00 351.50 ZM 166.56 362.78 C164.58,359.95 164.56,355.07 166.52,352.27 C167.58,350.76 167.85,348.92 167.41,346.19 C166.39,339.81 170.22,335.62 173.80,339.20 C175.28,340.68 175.36,345.46 173.94,348.10 C173.36,349.19 173.19,351.03 173.56,352.20 C174.16,354.09 174.34,354.14 175.17,352.66 C177.00,349.39 178.25,350.86 177.56,355.46 C177.17,358.05 177.33,360.75 177.95,361.90 C179.27,364.38 177.58,365.73 175.41,363.93 C174.28,362.99 173.63,362.97 172.76,363.84 C170.94,365.66 168.26,365.20 166.56,362.78 ZM 172.45 360.07 C173.13,358.98 171.03,354.00 169.90,354.00 C168.48,354.00 167.80,356.08 168.42,358.56 C169.03,360.98 171.35,361.85 172.45,360.07 ZM 172.00 344.00 C172.00,342.90 171.55,342.00 171.00,342.00 C170.45,342.00 170.00,342.90 170.00,344.00 C170.00,345.10 170.45,346.00 171.00,346.00 C171.55,346.00 172.00,345.10 172.00,344.00 ZM 188.56 362.78 C186.98,360.52 186.41,356.00 187.71,356.00 C188.10,356.00 189.34,357.15 190.47,358.56 C192.95,361.68 196.00,361.00 196.00,357.34 C196.00,355.50 195.15,354.54 192.54,353.45 C188.44,351.74 187.00,349.43 187.00,344.57 C187.00,339.13 191.88,335.28 195.60,337.77 C197.09,338.76 199.00,342.51 199.00,344.43 C199.00,346.73 196.24,346.34 195.48,343.94 C194.58,341.09 190.61,341.71 190.18,344.77 C189.92,346.56 190.60,347.35 193.36,348.51 C199.88,351.23 201.89,357.33 197.93,362.37 C195.28,365.73 190.76,365.93 188.56,362.78 ZM 202.67 364.33 C202.30,363.97 202.00,357.89 202.00,350.83 L 202.00 338.00 L 208.07 338.00 C213.79,338.00 214.12,338.13 213.82,340.25 C213.55,342.12 212.78,342.55 209.25,342.81 C205.49,343.08 205.00,343.40 205.00,345.56 C205.00,347.74 205.43,348.00 209.00,348.00 C212.60,348.00 213.00,348.25 213.00,350.50 C213.00,352.76 212.60,353.00 208.94,353.00 C204.95,353.00 204.88,353.07 205.19,356.25 C205.48,359.30 205.76,359.52 209.75,359.81 C213.51,360.08 214.00,360.40 214.00,362.56 C214.00,364.84 213.66,365.00 208.67,365.00 C205.73,365.00 203.03,364.70 202.67,364.33 ZM 219.65 363.51 C215.43,359.29 214.84,345.38 218.66,340.24 C221.72,336.12 225.48,336.10 227.97,340.19 C229.08,342.01 229.99,344.29 230.00,345.25 C230.00,347.89 227.08,347.35 226.00,344.50 C224.93,341.69 222.86,341.26 221.02,343.47 C219.62,345.16 219.20,353.19 220.30,357.25 C221.26,360.81 224.61,360.95 226.18,357.50 C227.49,354.64 230.00,354.14 230.00,356.75 C229.99,357.71 229.10,359.96 228.01,361.75 C225.82,365.34 222.24,366.09 219.65,363.51 ZM 234.76 363.25 C233.70,362.06 233.12,359.09 232.96,354.00 C232.55,341.07 232.85,338.00 234.50,338.00 C235.74,338.00 236.00,339.82 236.00,348.38 C236.00,356.69 236.32,359.02 237.61,360.09 C240.62,362.59 242.00,358.73 242.00,347.81 C242.00,339.76 242.27,338.00 243.50,338.00 C245.73,338.00 245.68,359.58 243.44,362.78 C241.55,365.49 236.96,365.74 234.76,363.25 ZM 248.47 363.77 C248.17,363.01 248.06,357.01 248.22,350.44 L 248.50 338.50 L 253.47 338.19 C257.30,337.94 258.73,338.27 259.72,339.63 C261.23,341.70 261.44,349.61 260.00,350.50 C259.33,350.92 259.33,351.74 260.00,352.99 C260.55,354.03 261.00,357.15 261.00,359.93 C261.00,363.77 260.64,365.00 259.50,365.00 C258.51,365.00 258.00,364.01 258.00,362.07 C258.00,357.50 256.30,354.00 254.08,354.00 C252.41,354.00 252.06,354.79 251.80,359.17 C251.51,364.16 249.62,366.77 248.47,363.77 ZM 257.39 347.75 C258.81,345.49 257.14,342.63 254.15,342.18 C252.25,341.90 252.00,342.33 252.00,346.00 C252.00,349.67 252.25,350.10 254.15,349.82 C255.33,349.64 256.79,348.71 257.39,347.75 ZM 264.64 364.31 C264.29,363.95 264.00,357.89 264.00,350.83 C264.00,340.09 264.24,338.00 265.50,338.00 C266.76,338.00 267.00,340.10 267.00,350.94 C267.00,362.74 266.41,366.08 264.64,364.31 ZM 274.00 354.07 C274.00,343.50 273.93,343.13 271.75,342.82 C270.30,342.61 269.39,341.70 269.18,340.25 C268.88,338.11 269.19,338.00 275.50,338.00 C281.81,338.00 282.12,338.11 281.82,340.25 C281.61,341.70 280.70,342.61 279.25,342.82 C277.07,343.13 277.00,343.50 277.00,354.07 C277.00,363.12 276.74,365.00 275.50,365.00 C274.26,365.00 274.00,363.12 274.00,354.07 ZM 288.00 359.66 C288.00,356.72 287.17,351.88 286.16,348.91 C282.92,339.42 282.74,338.00 284.74,338.00 C286.03,338.00 286.97,339.47 288.10,343.25 L 289.68 348.50 L 290.98 343.66 C292.15,339.31 294.22,336.89 295.61,338.27 C295.89,338.56 294.97,342.58 293.56,347.20 C292.15,351.82 291.00,357.72 291.00,360.30 C291.00,363.81 290.62,365.00 289.50,365.00 C288.35,365.00 288.00,363.74 288.00,359.66 ZM 306.00 354.07 C306.00,343.50 305.93,343.13 303.75,342.82 C302.30,342.61 301.39,341.70 301.18,340.25 C300.88,338.11 301.19,338.00 307.50,338.00 C313.81,338.00 314.12,338.11 313.82,340.25 C313.61,341.70 312.70,342.61 311.25,342.82 C309.07,343.13 309.00,343.50 309.00,354.07 C309.00,363.12 308.74,365.00 307.50,365.00 C306.26,365.00 306.00,363.12 306.00,354.07 ZM 317.14 362.45 C314.51,359.10 313.58,354.23 314.34,347.78 C315.47,338.27 320.81,334.36 325.84,339.38 C328.17,341.72 328.52,342.95 328.79,349.77 C329.19,359.60 327.16,364.34 322.37,364.80 C319.95,365.04 318.75,364.50 317.14,362.45 ZM 325.08 357.30 C327.77,350.22 324.47,340.07 320.31,342.60 C317.78,344.15 317.15,357.01 319.49,359.34 C321.47,361.33 323.88,360.44 325.08,357.30 ZM 338.67 364.33 C338.30,363.97 338.00,357.89 338.00,350.83 L 338.00 338.00 L 342.35 338.00 C347.96,338.00 350.00,340.16 350.00,346.11 C350.00,351.80 347.82,355.00 343.94,355.00 C341.08,355.00 341.00,355.13 341.00,360.00 C341.00,364.65 340.29,365.96 338.67,364.33 ZM 346.80 346.91 C347.14,343.99 344.79,341.48 342.51,342.36 C341.55,342.73 341.00,344.25 341.00,346.54 C341.00,349.87 341.20,350.11 343.75,349.82 C345.86,349.57 346.57,348.90 346.80,346.91 ZM 349.80 364.47 C349.34,364.01 353.09,344.73 354.60,339.75 C355.37,337.21 358.68,337.56 359.30,340.25 C361.88,351.45 364.16,364.17 363.68,364.65 C362.39,365.95 360.00,363.92 360.00,361.53 C360.00,359.40 359.54,359.00 357.10,359.00 C354.77,359.00 353.99,359.60 353.15,362.00 C352.16,364.83 351.01,365.68 349.80,364.47 ZM 358.00 350.56 C358.00,348.67 357.55,346.84 357.00,346.50 C356.45,346.16 356.00,346.30 356.00,346.82 C356.00,347.33 355.72,349.16 355.38,350.88 C354.88,353.35 355.09,354.00 356.38,354.00 C357.56,354.00 358.00,353.07 358.00,350.56 ZM 368.00 354.07 C368.00,343.50 367.93,343.13 365.75,342.82 C364.30,342.61 363.39,341.70 363.18,340.25 C362.88,338.11 363.19,338.00 369.50,338.00 C375.81,338.00 376.12,338.11 375.82,340.25 C375.61,341.70 374.70,342.61 373.25,342.82 C371.07,343.13 371.00,343.50 371.00,354.07 C371.00,363.12 370.74,365.00 369.50,365.00 C368.26,365.00 368.00,363.12 368.00,354.07 ZM 378.00 351.50 L 378.00 338.00 L 382.88 338.00 C390.03,338.00 390.84,339.50 389.87,351.00 C389.76,352.38 389.83,355.98 390.04,359.00 C390.33,363.32 390.10,364.50 388.95,364.50 C387.94,364.50 387.35,362.98 387.00,359.50 C386.54,354.93 386.26,354.47 383.75,354.18 C381.04,353.87 381.00,353.95 381.00,359.43 C381.00,363.71 380.65,365.00 379.50,365.00 C378.24,365.00 378.00,362.83 378.00,351.50 ZM 386.81 346.34 C387.05,343.87 386.66,343.03 385.07,342.52 C382.23,341.62 381.00,342.64 381.00,345.89 C381.00,349.28 381.79,350.17 384.46,349.79 C385.94,349.58 386.58,348.63 386.81,346.34 ZM 395.82 363.30 C393.48,360.64 392.70,357.25 392.82,350.28 C392.98,340.67 396.52,335.76 402.01,337.50 C405.46,338.60 407.39,343.76 407.35,351.80 C407.33,357.50 406.88,359.68 405.31,361.80 C402.83,365.14 398.09,365.89 395.82,363.30 ZM 402.44 358.78 C404.23,356.23 404.56,346.91 402.96,343.93 C401.47,341.14 398.14,341.49 396.98,344.57 C394.74,350.44 396.69,361.00 400.00,361.00 C400.49,361.00 401.59,360.00 402.44,358.78 ZM 410.64 364.31 C410.29,363.95 410.00,357.89 410.00,350.83 C410.00,339.10 410.16,338.00 411.82,338.00 C413.15,338.00 414.11,339.52 415.43,343.75 C416.42,346.91 417.84,350.62 418.58,352.00 C419.80,354.27 419.92,353.74 419.96,346.25 C419.99,339.60 420.29,338.00 421.50,338.00 C422.76,338.00 423.00,340.17 423.00,351.57 C423.00,363.96 422.85,365.12 421.25,364.81 C420.05,364.58 418.71,362.05 417.00,356.80 C415.62,352.58 414.16,348.79 413.75,348.39 C413.34,347.99 413.00,351.32 413.00,355.77 C413.00,363.24 412.26,365.92 410.64,364.31 ZM 427.64 363.49 C425.53,361.39 424.61,357.99 425.81,356.79 C427.03,355.57 429.00,356.60 429.00,358.45 C429.00,360.33 431.98,361.26 433.63,359.89 C436.17,357.78 435.20,355.11 431.29,353.47 C426.61,351.52 426.03,350.58 426.02,344.90 C425.98,335.64 434.76,333.92 437.42,342.67 C438.39,345.84 436.06,346.73 433.99,343.99 C431.98,341.32 429.00,341.86 429.00,344.89 C429.00,346.16 430.49,347.67 433.25,349.19 C437.11,351.31 437.53,351.92 437.81,355.84 C438.22,361.48 436.00,365.00 432.05,365.00 C430.45,365.00 428.47,364.32 427.64,363.49 ZM 228.45 315.35 C225.75,312.44 225.43,310.34 227.11,306.66 C229.03,302.45 231.73,302.00 254.91,302.00 L 276.73 302.00 L 279.36 304.64 C282.56,307.84 282.77,311.75 279.93,315.37 L 277.85 318.00 L 254.38 318.00 L 230.90 318.00 L 228.45 315.35 ZM 206.52 307.62 C204.80,302.23 204.40,302.84 214.25,296.01 C218.51,293.05 222.00,290.32 222.00,289.95 C222.00,289.57 219.97,288.69 217.48,287.99 C213.57,286.90 212.72,286.94 211.21,288.31 C207.91,291.30 200.54,293.96 195.50,293.98 C191.99,293.99 188.61,293.11 184.16,291.00 C180.67,289.35 177.50,288.19 177.11,288.43 C175.46,289.45 173.75,286.93 173.28,282.79 C172.77,278.27 174.38,273.63 177.80,269.73 C179.22,268.10 179.08,267.68 175.98,264.48 C174.12,262.57 172.18,261.00 171.65,261.00 C169.56,261.00 163.90,255.69 162.55,252.45 C161.76,250.57 158.42,244.64 155.12,239.26 C143.81,220.83 139.10,205.49 138.28,184.45 C137.44,162.58 140.39,148.33 149.74,129.13 C161.90,104.18 186.79,81.44 212.20,72.05 C239.63,61.92 270.04,62.23 296.49,72.91 C330.58,86.67 355.83,115.01 365.65,150.54 C368.18,159.71 368.40,161.96 368.44,179.00 C368.47,193.50 368.11,198.85 366.76,203.74 C363.60,215.24 358.42,227.67 352.43,238.13 C347.72,246.37 344.58,250.37 337.15,257.59 L 327.80 266.69 L 329.90 270.80 C331.06,273.07 332.00,275.56 332.00,276.34 C332.00,277.12 332.70,278.33 333.55,279.04 C334.40,279.74 334.88,280.87 334.62,281.54 C334.37,282.21 334.55,284.49 335.02,286.60 C336.09,291.32 335.75,291.72 332.53,289.61 C330.15,288.05 329.77,288.07 326.04,289.98 C319.77,293.18 313.78,292.66 305.50,288.21 L 298.50 284.44 L 293.56 286.03 C290.85,286.91 288.50,288.05 288.35,288.56 C288.20,289.08 291.77,291.98 296.29,295.00 C305.39,301.09 306.52,303.23 302.60,306.91 L 300.11 309.25 L 291.30 303.73 C278.95,295.99 270.24,291.79 267.99,292.50 C266.96,292.83 260.13,293.12 252.81,293.15 L 239.50 293.21 L 226.10 300.66 C211.52,308.77 207.35,310.25 206.52,307.62 ZM 228.61 296.89 C253.35,282.90 251.74,284.02 249.48,282.36 C248.46,281.61 246.59,281.00 245.34,281.00 C243.17,281.00 213.48,298.48 209.71,301.97 C208.02,303.54 208.20,307.00 209.97,307.00 C210.38,307.00 218.77,302.45 228.61,296.89 ZM 301.80 305.80 C302.46,305.14 303.00,304.01 303.00,303.29 C303.00,299.96 267.73,280.38 245.70,271.50 C241.32,269.73 238.13,268.11 238.62,267.89 C239.10,267.68 246.02,267.73 254.00,268.00 L 268.50 268.50 L 263.16 270.73 C257.46,273.12 256.86,274.86 261.24,276.41 C263.35,277.16 265.24,276.59 271.66,273.27 C275.97,271.05 282.31,268.22 285.75,266.98 C291.33,264.97 292.00,264.44 292.00,262.02 C292.00,260.53 291.05,258.45 289.89,257.40 C280.82,249.20 282.73,234.67 294.32,223.66 L 299.42 218.82 L 296.96 216.93 C295.61,215.89 293.97,215.03 293.33,215.02 C292.69,215.01 289.99,219.27 287.33,224.50 C284.67,229.72 282.19,233.99 281.81,234.00 C279.73,234.01 274.00,229.56 274.00,227.93 C274.00,225.11 278.33,215.92 281.34,212.36 C283.10,210.28 284.00,208.04 284.00,205.77 C284.00,202.77 282.34,200.46 271.16,187.91 C264.10,179.99 257.57,172.88 256.66,172.13 C255.25,170.96 253.14,170.96 242.76,172.13 L 230.51 173.51 L 228.47 191.50 C227.35,201.40 226.09,210.06 225.66,210.75 C225.19,211.50 222.71,212.00 219.41,212.00 C215.15,212.00 213.79,211.62 213.27,210.27 C212.56,208.41 223.59,128.00 225.07,124.25 C225.80,122.39 226.72,122.00 230.36,122.00 C237.38,122.00 237.57,122.66 235.57,140.28 C234.62,148.65 233.60,156.51 233.31,157.75 C232.66,160.51 233.47,160.54 240.28,157.99 C247.27,155.38 258.18,148.83 264.67,143.35 C279.05,131.21 273.28,114.93 253.74,112.49 L 248.00 111.77 L 248.00 106.88 C248.00,101.25 247.99,101.25 258.92,103.14 C271.44,105.30 280.97,111.19 285.25,119.41 C288.56,125.76 288.28,135.86 284.59,143.41 C281.71,149.28 276.46,155.33 270.00,160.21 L 266.50 162.85 L 275.00 171.22 C279.67,175.83 285.26,182.16 287.42,185.30 C289.57,188.43 291.61,191.00 291.94,191.00 C292.28,191.00 293.81,188.11 295.35,184.58 C296.89,181.05 298.80,177.91 299.59,177.60 C301.57,176.84 305.85,178.94 306.50,181.01 C306.80,181.94 305.23,186.64 303.02,191.45 C300.81,196.26 299.00,200.64 299.00,201.18 C299.00,201.72 300.61,204.13 302.59,206.54 C305.59,210.21 306.07,211.42 305.51,213.98 C304.86,216.93 304.94,217.02 308.13,216.77 C310.74,216.55 311.50,216.91 311.81,218.50 C312.02,219.60 313.02,221.40 314.03,222.50 C316.78,225.50 318.00,229.51 318.00,235.57 C318.00,238.55 318.41,241.00 318.92,241.00 C320.89,241.00 329.32,229.02 334.05,219.50 C341.50,204.53 343.34,196.53 343.39,179.00 C343.44,163.34 342.14,156.18 337.15,144.50 C326.41,119.35 304.05,99.53 277.81,91.92 C267.53,88.94 246.26,88.16 235.41,90.36 C206.76,96.19 183.67,114.13 171.05,140.36 C164.90,153.14 163.00,160.60 162.29,174.74 C161.22,196.00 166.15,213.52 178.24,231.35 C182.36,237.42 194.10,250.00 195.65,250.00 C196.14,250.00 196.37,246.68 196.17,242.63 C195.87,236.74 196.22,234.30 197.90,230.50 C199.05,227.89 200.00,225.13 200.00,224.37 C200.00,223.62 200.83,223.00 201.84,223.00 C202.85,223.00 204.19,221.88 204.82,220.50 C206.26,217.34 207.61,217.31 208.39,220.43 C208.73,221.77 209.79,223.12 210.75,223.43 C214.04,224.49 220.11,231.00 222.18,235.67 C224.62,241.18 224.25,247.39 221.05,254.63 C219.92,257.17 219.00,260.07 219.00,261.07 C219.00,262.44 217.94,263.04 214.60,263.54 C209.16,264.35 206.80,263.64 202.52,259.88 C199.63,257.35 196.85,256.46 182.45,253.44 C173.25,251.52 165.52,250.14 165.28,250.39 C164.55,251.12 166.64,254.32 169.80,257.33 C172.40,259.81 174.50,260.45 186.64,262.54 C208.18,266.25 231.94,272.94 252.00,280.96 C260.98,284.55 284.36,296.84 292.21,302.09 C300.35,307.54 300.14,307.46 301.80,305.80 ZM 205.01 288.00 C209.33,285.79 214.00,279.75 214.00,276.37 C214.00,273.63 208.34,268.60 203.44,266.98 C198.57,265.37 188.94,266.27 184.76,268.71 C180.14,271.41 176.84,276.68 177.20,280.78 C177.44,283.45 178.20,284.49 181.00,285.93 C189.78,290.48 198.65,291.24 205.01,288.00 ZM 325.07 286.25 C331.26,283.12 331.31,282.81 327.28,273.74 C324.95,268.50 320.49,263.45 315.42,260.31 C313.62,259.19 313.66,259.11 316.05,259.06 C317.45,259.03 319.04,258.56 319.58,258.02 C320.11,257.49 324.48,256.74 329.28,256.38 L 338.01 255.70 L 341.00 251.18 C343.74,247.05 344.61,245.00 343.62,245.00 C342.18,245.00 318.13,250.38 316.07,251.16 C314.66,251.70 309.51,254.66 304.63,257.73 L 295.76 263.33 L 296.33 268.10 C297.39,277.12 302.37,283.66 311.04,287.42 C316.04,289.59 318.96,289.35 325.07,286.25 ZM 215.35 257.75 C222.64,248.09 220.71,234.77 211.08,228.27 C206.18,224.97 204.49,225.35 202.10,230.30 C197.35,240.10 198.83,252.01 205.53,257.89 C210.03,261.84 212.29,261.81 215.35,257.75 ZM 305.39 251.78 C311.86,246.08 314.00,242.16 314.00,235.99 C314.00,228.56 308.19,220.23 303.79,221.34 C296.34,223.23 288.60,231.81 287.45,239.46 C286.20,247.85 291.36,257.02 297.33,256.99 C298.52,256.98 302.15,254.64 305.39,251.78 ZM 166.23 239.77 C166.09,238.93 167.15,237.48 168.59,236.53 C170.38,235.36 170.89,234.49 170.19,233.79 C169.49,233.09 168.46,233.27 166.93,234.34 C165.31,235.47 164.18,235.63 162.85,234.92 C160.50,233.66 160.47,234.90 162.75,238.91 C164.52,242.02 166.72,242.57 166.23,239.77 ZM 343.00 240.06 C343.00,239.54 342.44,238.77 341.76,238.35 C340.92,237.83 341.30,237.40 342.94,237.02 C346.45,236.19 346.45,234.71 342.92,232.10 C340.71,230.46 339.49,230.11 338.74,230.86 C337.98,231.62 338.15,232.12 339.33,232.57 C341.82,233.53 341.35,235.00 338.56,235.00 C334.74,235.00 334.58,236.78 338.20,238.98 C341.85,241.21 343.00,241.47 343.00,240.06 ZM 163.47 232.31 C166.92,230.67 168.67,227.14 165.41,228.40 C162.83,229.39 161.71,227.98 163.50,226.00 C165.88,223.37 163.77,222.67 159.55,224.68 C156.03,226.35 155.29,228.37 158.09,228.63 C158.86,228.71 159.93,228.82 160.45,228.88 C160.97,228.95 160.86,229.54 160.20,230.20 C159.03,231.37 158.53,234.00 159.47,234.00 C159.72,234.00 161.52,233.24 163.47,232.31 ZM 348.80 230.80 C351.61,227.99 349.49,223.00 345.50,223.00 C341.24,223.00 339.70,226.90 342.65,230.17 C344.56,232.28 347.07,232.53 348.80,230.80 ZM 159.85 222.90 C161.58,222.30 163.00,221.69 163.00,221.55 C163.00,221.41 162.51,219.88 161.90,218.15 C160.60,214.41 158.50,213.86 159.41,217.50 C159.77,218.94 159.61,220.00 159.02,220.00 C158.46,220.00 158.00,219.32 158.00,218.50 C158.00,217.68 157.50,217.00 156.88,217.00 C156.26,217.00 156.00,217.88 156.29,219.00 C156.58,220.10 156.40,221.00 155.91,221.00 C155.41,221.00 155.00,220.32 155.00,219.50 C155.00,218.68 154.36,218.00 153.59,218.00 C152.43,218.00 152.38,218.55 153.31,221.00 C154.56,224.31 155.24,224.51 159.85,222.90 ZM 353.00 221.95 C353.00,221.37 351.44,220.25 349.53,219.45 C345.25,217.66 345.00,217.66 345.00,219.42 C345.00,220.20 346.24,221.29 347.75,221.84 C351.43,223.18 353.00,223.22 353.00,221.95 ZM 355.61 215.22 C356.03,213.12 355.86,212.00 355.12,212.00 C354.51,212.00 354.00,212.48 354.00,213.07 C354.00,214.04 352.39,213.81 348.25,212.26 C347.56,212.00 347.00,212.47 347.00,213.30 C347.00,214.13 348.36,215.28 350.02,215.86 C351.67,216.43 352.97,217.27 352.90,217.70 C352.18,221.94 354.73,219.61 355.61,215.22 ZM 357.76 208.00 C357.91,207.18 356.68,205.60 355.02,204.50 C350.97,201.81 351.22,201.09 356.00,201.73 C358.59,202.07 360.00,201.87 360.00,201.15 C360.00,200.15 358.86,199.74 352.75,198.53 C351.00,198.19 350.45,199.92 350.86,204.40 C350.95,205.45 350.25,207.17 349.30,208.22 C347.62,210.08 347.71,210.12 352.53,209.81 C355.97,209.60 357.57,209.04 357.76,208.00 ZM 154.28 206.94 C156.39,206.35 157.77,205.44 157.42,204.88 C157.08,204.32 156.08,204.14 155.20,204.47 C153.91,204.97 153.96,204.70 155.44,203.06 C157.23,201.09 157.22,201.01 154.89,200.08 C153.04,199.34 152.91,199.11 154.32,199.06 C155.74,199.01 155.98,198.51 155.41,196.75 C154.75,194.71 154.21,190.34 154.06,185.75 C154.03,184.79 153.32,184.00 152.50,184.00 C151.68,184.00 151.00,183.32 151.00,182.50 C151.00,181.68 151.74,181.00 152.64,181.00 C154.00,181.00 154.17,180.25 153.66,176.54 C153.32,174.02 153.47,171.83 154.03,171.48 C154.56,171.15 155.00,169.56 155.00,167.94 C155.00,165.82 154.51,164.99 153.25,164.98 C151.82,164.96 151.94,164.62 153.92,163.10 C155.75,161.69 156.30,160.37 156.20,157.62 C156.12,155.63 156.50,154.00 157.03,154.00 C157.56,154.00 158.00,153.13 158.00,152.06 C158.00,150.99 158.45,149.84 159.00,149.50 C160.57,148.53 160.17,144.00 158.46,143.35 C157.62,143.02 155.93,143.59 154.71,144.60 C153.50,145.62 153.06,145.81 153.75,145.02 C155.41,143.13 155.33,142.00 153.52,142.00 C151.89,142.00 150.42,146.26 151.46,147.94 C152.47,149.56 154.79,149.20 155.88,147.26 C156.41,146.30 157.21,145.87 157.65,146.31 C158.08,146.75 157.97,147.42 157.40,147.80 C156.82,148.19 156.06,149.29 155.71,150.25 C155.30,151.37 154.01,152.00 152.14,152.00 C147.70,152.00 147.45,154.56 151.61,157.38 C155.24,159.84 154.73,162.10 151.07,159.81 C148.61,158.28 147.47,159.27 146.53,163.75 C145.91,166.68 146.07,167.00 148.17,167.02 C149.45,167.02 151.15,167.44 151.94,167.94 C153.02,168.63 152.54,169.06 149.94,169.74 C145.13,170.98 145.03,173.44 149.69,175.90 L 153.50 177.91 L 149.92 177.96 C145.27,178.01 144.37,179.02 147.12,181.09 L 149.33 182.75 L 147.14 183.93 C144.13,185.54 145.37,186.99 149.81,187.04 L 153.50 187.09 L 149.75 189.07 C147.69,190.16 146.00,191.73 146.00,192.56 C146.00,194.10 146.34,194.29 151.50,195.59 L 154.50 196.34 L 150.75 197.35 C146.63,198.45 145.82,200.63 149.09,201.84 C150.93,202.52 150.99,202.76 149.65,203.88 C148.81,204.58 148.37,205.79 148.67,206.57 C149.32,208.27 149.45,208.28 154.28,206.94 ZM 361.00 194.00 C361.00,191.46 358.54,189.81 355.31,190.18 C352.95,190.45 352.45,191.02 352.19,193.75 C351.95,196.18 352.27,197.00 353.46,197.00 C354.66,197.00 354.88,196.38 354.39,194.40 C353.84,192.22 354.04,191.86 355.62,192.17 C356.65,192.37 357.56,193.43 357.64,194.52 C357.72,195.61 357.84,196.89 357.89,197.37 C358.09,198.96 361.00,195.79 361.00,194.00 ZM 360.81 184.32 C361.04,181.92 360.60,180.86 359.03,180.02 C356.79,178.82 357.15,176.74 359.44,177.62 C361.31,178.33 362.50,174.30 360.96,172.45 C359.13,170.25 357.11,170.71 356.41,173.50 C356.07,174.88 355.38,176.00 354.89,176.00 C353.81,176.00 353.72,174.61 354.75,173.58 C355.16,173.17 355.54,172.53 355.59,172.17 C355.87,169.95 357.36,168.20 358.57,168.67 C360.50,169.41 361.40,166.61 360.04,164.08 C358.55,161.29 357.38,161.46 355.47,164.75 C354.59,166.26 354.09,166.77 354.36,165.87 C354.63,164.98 354.36,163.76 353.77,163.17 C352.99,162.39 353.58,161.58 355.84,160.29 C359.93,157.96 359.95,155.44 355.88,154.62 C351.16,153.68 350.00,153.85 350.00,155.50 C350.00,156.32 350.36,157.00 350.79,157.00 C351.23,157.00 351.65,159.53 351.72,162.63 C351.79,165.72 352.29,168.69 352.82,169.22 C353.35,169.75 353.56,171.88 353.28,173.96 C352.97,176.30 353.22,178.02 353.95,178.47 C354.81,179.00 354.66,179.72 353.41,181.10 C351.98,182.68 351.88,183.45 352.85,185.57 C353.81,187.67 354.59,188.07 357.26,187.81 C360.09,187.54 360.54,187.10 360.81,184.32 ZM 352.00 147.89 C352.00,147.28 352.64,147.03 353.42,147.33 C355.32,148.06 356.25,145.33 354.93,142.87 C353.43,140.07 350.57,140.92 350.18,144.28 C350.01,145.79 349.49,146.80 349.03,146.52 C348.56,146.23 348.44,145.04 348.75,143.87 C349.15,142.33 348.91,141.86 347.90,142.20 C346.02,142.83 345.55,145.75 347.04,147.55 C348.45,149.25 352.00,149.50 352.00,147.89 ZM 162.00 141.50 C162.00,140.68 161.55,140.00 161.00,140.00 C160.45,140.00 160.00,139.29 160.00,138.43 C160.00,137.32 160.58,137.05 162.00,137.50 C165.46,138.60 164.34,135.05 160.75,133.52 C157.34,132.08 154.15,133.24 156.89,134.93 C158.64,136.01 157.42,138.10 155.47,137.35 C152.49,136.21 154.08,139.68 157.25,141.25 C161.38,143.31 162.00,143.34 162.00,141.50 ZM 350.83 138.23 C352.62,140.02 353.11,138.61 351.91,135.16 C350.78,131.94 348.00,130.77 348.00,133.52 C348.00,134.36 346.88,135.56 345.50,136.18 C344.12,136.81 343.00,137.62 343.00,137.99 C343.00,139.63 344.45,139.82 346.98,138.51 C349.01,137.46 349.99,137.39 350.83,138.23 ZM 344.64 132.50 C344.95,131.68 345.84,131.00 346.61,131.00 C348.46,131.00 348.39,127.57 346.51,126.01 C344.15,124.05 341.67,125.57 342.41,128.51 C342.77,129.94 342.61,131.00 342.02,131.00 C341.46,131.00 341.00,130.10 341.00,129.00 C341.00,127.90 340.55,127.00 340.00,127.00 C338.70,127.00 338.72,129.61 340.04,132.07 C341.27,134.37 343.83,134.61 344.64,132.50 ZM 167.00 130.57 C167.00,129.78 166.10,128.85 165.00,128.50 C163.90,128.15 163.00,127.00 163.00,125.93 C163.00,123.08 161.27,123.59 159.53,126.95 C157.54,130.79 157.60,131.26 159.98,130.51 C161.07,130.16 162.76,130.34 163.73,130.91 C166.17,132.33 167.00,132.24 167.00,130.57 ZM 170.46 126.07 C170.77,125.56 170.58,124.86 170.02,124.51 C168.18,123.38 168.95,121.85 171.02,122.51 C172.65,123.02 173.33,122.46 174.52,119.61 C175.33,117.66 176.97,115.55 178.16,114.91 C180.27,113.79 180.24,113.72 177.05,112.38 C170.61,109.67 167.92,111.66 171.53,116.44 C172.34,117.51 173.00,118.75 173.00,119.19 C173.00,120.62 170.23,120.05 169.64,118.50 C168.75,116.18 166.23,116.72 164.32,119.63 C162.62,122.22 162.65,122.31 165.55,124.63 C168.79,127.22 169.60,127.46 170.46,126.07 ZM 341.10 124.93 C344.05,122.83 344.89,121.00 342.90,121.00 C341.06,121.00 335.94,125.09 336.55,126.08 C337.35,127.38 337.82,127.26 341.10,124.93 ZM 338.00 122.02 C339.31,121.19 339.28,120.85 337.75,119.32 C336.08,117.65 336.00,117.66 336.00,119.34 C336.00,120.32 335.55,120.84 335.00,120.50 C333.44,119.54 333.82,117.01 335.63,116.31 C336.67,115.91 337.92,116.55 339.11,118.09 C340.89,120.41 340.96,120.42 340.98,118.40 C340.99,117.25 340.10,115.49 339.00,114.50 C334.95,110.84 329.49,116.40 332.67,120.94 C334.25,123.19 335.69,123.48 338.00,122.02 ZM 333.46 112.42 C335.06,109.98 335.06,109.72 333.42,107.92 C330.40,104.57 325.00,105.99 325.00,110.13 C325.00,112.39 327.66,115.00 329.96,115.00 C330.95,115.00 332.53,113.84 333.46,112.42 ZM 185.96 107.55 C187.59,105.58 186.82,102.47 184.74,102.63 C183.39,102.74 183.25,102.39 184.06,100.88 C185.40,98.39 187.42,98.50 189.20,101.17 C190.05,102.46 191.13,103.04 191.84,102.60 C192.72,102.06 192.49,101.10 191.00,99.00 C189.72,97.20 189.35,95.90 190.00,95.50 C190.57,95.15 190.78,94.45 190.46,93.94 C189.73,92.75 184.00,96.96 184.00,98.69 C184.00,99.41 183.12,100.00 182.04,100.00 C179.85,100.00 177.53,103.44 178.58,105.12 C178.95,105.73 180.51,105.95 182.12,105.63 C183.72,105.31 185.00,105.48 185.00,106.03 C185.00,106.56 184.35,107.00 183.56,107.00 C182.77,107.00 181.84,107.45 181.50,108.00 C180.52,109.58 184.62,109.16 185.96,107.55 ZM 325.69 105.83 C327.97,103.67 328.79,101.00 327.15,101.00 C326.69,101.00 325.50,101.90 324.50,103.00 C323.50,104.10 322.31,105.00 321.85,105.00 C320.45,105.00 320.89,102.78 322.66,100.82 C324.64,98.64 323.62,97.12 321.20,98.64 C318.63,100.25 317.39,104.56 318.95,106.44 C320.74,108.59 322.95,108.39 325.69,105.83 ZM 317.00 101.72 C317.00,101.02 317.96,99.62 319.13,98.62 L 321.26 96.80 L 318.63 94.17 L 316.00 91.54 L 312.78 94.76 C310.44,97.10 309.87,98.27 310.67,99.07 C311.46,99.86 311.96,99.87 312.45,99.09 C313.49,97.39 315.29,97.81 314.60,99.59 C314.27,100.46 314.25,101.59 314.56,102.09 C315.39,103.44 317.00,103.19 317.00,101.72 ZM 196.77 98.00 C197.45,96.90 198.69,96.00 199.51,96.00 C201.83,96.00 201.28,94.58 198.04,92.19 C192.97,88.44 191.30,89.69 192.99,95.98 C194.21,100.50 194.96,100.90 196.77,98.00 ZM 310.43 95.43 C312.60,93.26 312.41,89.29 310.07,88.04 C307.20,86.50 306.60,86.71 304.72,89.90 C302.48,93.69 302.55,94.48 305.25,95.78 C308.31,97.25 308.62,97.23 310.43,95.43 ZM 205.00 92.93 C205.00,92.35 204.52,90.97 203.93,89.87 C203.15,88.42 203.19,87.48 204.05,86.44 C205.67,84.48 203.82,84.52 199.95,86.53 C196.96,88.07 195.74,90.70 198.50,89.64 C199.41,89.29 200.62,90.02 201.61,91.53 C203.29,94.09 205.00,94.80 205.00,92.93 ZM 213.07 89.96 C215.94,88.43 215.42,86.87 212.25,87.55 C209.75,88.08 209.66,88.01 211.25,86.71 C213.66,84.74 213.44,83.74 210.75,84.48 C208.57,85.08 208.56,85.05 210.43,83.56 C212.94,81.55 211.98,80.68 208.64,81.95 C205.66,83.08 205.56,83.45 207.10,87.85 C208.25,91.14 209.82,91.70 213.07,89.96 ZM 298.00 89.00 C298.00,87.90 297.48,87.00 296.85,87.00 C296.20,87.00 296.52,86.09 297.56,84.94 C299.15,83.18 299.21,82.74 297.96,81.95 C295.74,80.55 294.71,80.82 292.25,83.41 C289.21,86.61 289.41,87.84 293.25,89.51 C297.57,91.39 298.00,91.34 298.00,89.00 ZM 226.02 84.48 C227.64,82.52 226.51,81.33 224.57,82.94 C222.72,84.47 221.00,83.51 221.00,80.94 C221.00,79.53 221.69,79.00 223.56,79.00 C225.01,79.00 225.85,78.57 225.50,78.00 C224.65,76.62 220.66,76.74 219.20,78.20 C217.54,79.86 217.70,82.01 219.65,84.17 C221.67,86.40 224.32,86.53 226.02,84.48 ZM 285.29 83.75 C285.54,83.06 284.80,81.38 283.64,80.00 C282.48,78.62 282.18,78.06 282.96,78.75 C284.85,80.39 286.00,80.33 286.00,78.61 C286.00,77.84 285.29,76.94 284.42,76.61 C279.65,74.78 277.19,78.10 281.09,81.11 C282.97,82.55 283.13,82.96 281.83,82.98 C280.92,82.99 279.97,82.44 279.72,81.75 C279.47,81.06 278.93,80.82 278.51,81.21 C278.10,81.60 278.02,82.61 278.35,83.46 C279.06,85.32 284.63,85.55 285.29,83.75 ZM 231.00 82.00 C231.00,80.89 231.67,80.00 232.50,80.00 C233.32,80.00 234.00,80.71 234.00,81.58 C234.00,82.45 234.56,82.97 235.25,82.73 C236.46,82.31 236.50,81.03 235.45,76.25 C234.91,73.77 233.00,73.14 233.00,75.44 C233.00,77.66 230.85,78.48 229.82,76.64 C228.11,73.58 226.74,74.81 227.48,78.74 C227.87,80.80 228.39,82.83 228.65,83.24 C229.57,84.73 231.00,83.97 231.00,82.00 ZM 274.65 80.00 C274.99,78.31 275.89,77.00 276.71,77.00 C277.51,77.00 277.98,76.44 277.76,75.75 C277.25,74.21 270.00,73.45 270.00,74.94 C270.00,75.52 270.45,76.00 271.00,76.00 C271.55,76.00 272.00,77.57 272.00,79.50 C272.00,83.78 273.82,84.13 274.65,80.00 ZM 244.88 81.38 C247.17,80.92 248.02,80.18 248.07,78.62 C248.13,76.53 248.15,76.53 249.22,78.75 C249.82,79.99 250.62,81.00 251.00,81.00 C251.38,81.00 252.18,79.99 252.78,78.75 L 253.86 76.50 L 253.93 78.75 C254.06,83.07 256.00,80.96 256.00,76.50 C256.00,73.12 255.62,72.00 254.47,72.00 C253.63,72.00 252.57,73.00 252.12,74.21 L 251.30 76.43 L 250.11 74.21 C248.16,70.56 246.00,71.44 246.00,75.88 C246.00,79.34 245.74,79.75 243.50,79.75 C242.12,79.75 241.00,79.36 241.00,78.88 C241.00,78.39 241.68,78.00 242.50,78.00 C244.92,78.00 244.22,76.01 241.75,75.86 L 239.50 75.73 L 241.75 75.29 C245.01,74.67 244.51,73.00 241.06,73.00 C237.40,73.00 236.92,73.75 237.67,78.34 C238.30,82.24 239.02,82.54 244.88,81.38 ZM 268.70 80.34 C269.11,79.27 268.48,77.99 266.92,76.71 L 264.50 74.73 L 266.87 75.47 C268.63,76.02 269.12,75.86 268.79,74.85 C268.11,72.78 263.12,72.53 262.35,74.53 C261.76,76.07 262.80,77.32 265.50,78.35 C266.05,78.56 266.17,79.08 265.77,79.51 C265.37,79.93 264.40,79.75 263.61,79.09 C262.70,78.34 261.95,78.26 261.57,78.89 C260.85,80.05 263.72,81.93 266.28,81.97 C267.26,81.99 268.35,81.25 268.70,80.34 ZM 260.00 76.50 C260.00,74.03 259.55,72.00 259.00,72.00 C258.45,72.00 257.99,73.01 257.99,74.25 C257.98,75.49 257.70,77.51 257.37,78.75 C256.93,80.40 257.19,81.00 258.38,81.00 C259.63,81.00 260.00,79.98 260.00,76.50 ZM 238.65 256.17 C237.22,254.59 237.00,251.45 237.00,232.94 L 237.00 211.54 L 241.13 207.77 C244.85,204.37 245.20,203.64 244.69,200.46 L 244.11 196.93 L 253.81 197.21 L 263.50 197.50 L 263.50 201.64 C263.50,204.86 264.11,206.34 266.25,208.34 L 269.00 210.90 L 269.00 232.90 C269.00,259.83 270.21,258.00 252.43,258.00 C241.96,258.00 240.08,257.75 238.65,256.17 ZM 188.64 286.31 C185.77,285.43 184.15,284.45 184.68,283.92 C185.91,282.69 208.94,278.09 209.48,278.97 C210.36,280.39 206.63,284.27 202.62,286.09 C197.79,288.28 195.23,288.32 188.64,286.31 ZM 180.45 278.30 C182.04,271.91 188.68,268.38 197.39,269.28 C206.19,270.19 211.54,274.16 205.75,275.47 C204.51,275.76 199.23,276.89 194.00,278.00 C188.77,279.11 183.43,280.26 182.13,280.56 C179.96,281.05 179.82,280.86 180.45,278.30 ZM 312.50 284.67 C308.26,282.74 303.18,278.26 301.46,274.93 C300.10,272.30 299.46,268.00 300.42,268.00 C301.42,268.00 325.10,281.36 325.64,282.22 C327.43,285.12 317.55,286.96 312.50,284.67 ZM 313.50 271.36 C308.00,267.81 303.37,264.54 303.21,264.08 C302.72,262.70 308.01,262.17 311.81,263.21 C316.98,264.64 319.55,266.61 322.97,271.77 C328.46,280.06 326.87,279.99 313.50,271.36 ZM 206.78 255.25 C203.20,251.14 201.22,242.81 202.48,237.09 C203.76,231.26 205.61,233.68 208.35,244.75 C209.81,250.66 211.00,255.84 211.00,256.25 C211.00,257.65 208.32,257.01 206.78,255.25 ZM 210.71 242.33 C209.25,236.43 208.28,231.39 208.54,231.13 C209.63,230.04 215.11,236.68 216.07,240.25 C217.19,244.42 216.17,252.11 214.42,252.69 C213.82,252.89 212.21,248.38 210.71,242.33 ZM 293.25 251.75 C289.81,247.42 289.55,239.81 292.63,233.78 C293.91,231.28 300.43,226.00 302.23,226.00 C303.63,226.00 303.04,229.81 299.84,241.47 C296.79,252.57 295.50,254.58 293.25,251.75 ZM 301.53 247.75 C301.91,245.96 303.23,240.68 304.46,236.00 C307.06,226.12 309.00,224.89 310.41,232.23 C311.57,238.22 309.89,244.26 305.99,248.17 C302.16,252.00 300.66,251.86 301.53,247.75 ZM 344.35 227.46 C344.02,226.61 344.01,225.65 344.33,225.33 C345.34,224.32 348.00,225.87 348.00,227.47 C348.00,229.46 345.11,229.46 344.35,227.46 ZM 355.00 184.00 C355.00,182.49 355.52,181.95 356.75,182.19 C357.71,182.38 358.50,183.19 358.50,184.00 C358.50,184.81 357.71,185.62 356.75,185.81 C355.52,186.05 355.00,185.51 355.00,184.00 ZM 328.03 111.31 C328.01,110.10 328.47,108.83 329.04,108.47 C330.24,107.73 333.00,109.72 333.00,111.32 C333.00,112.04 332.61,112.01 331.83,111.23 C330.95,110.35 330.36,110.48 329.37,111.78 C328.17,113.36 328.06,113.32 328.03,111.31 ZM 306.00 93.12 C306.00,91.88 308.57,89.90 309.27,90.61 C310.24,91.57 308.89,94.00 307.39,94.00 C306.63,94.00 306.00,93.61 306.00,93.12 Z" fill="rgb(251,251,251)"/>
</g>
</svg>